<?xml version="1.0" standalone="no"?>
<!DOCTYPE svg PUBLIC "-//W3C//DTD SVG 1.1//EN" "http://www.w3.org/Graphics/SVG/1.1/DTD/svg11.dtd" >
<svg xmlns="http://www.w3.org/2000/svg">
<metadata></metadata>
<defs>
<font id="toxicaregular" horiz-adv-x="1228" >
<font-face units-per-em="2048" ascent="1638" descent="-410" />
<missing-glyph horiz-adv-x="500" />
<glyph horiz-adv-x="0" />
<glyph unicode="&#xd;" />
<glyph unicode=" " />
<glyph unicode="!" d="M461 1128q0 199 162 199q70 0 110 -51q35 -45 35 -117v-45q0 -18 -5 -58t-5 -61q0 -33 -6 -90q-10 -68 -13 -90q-8 -76 -22 -227q-4 -51 -12 -111q-6 -39 -29 -76q-27 -45 -60 -45q-82 0 -90 99q-8 78 -20 233q-12 86 -29 256q0 25 -10 92q-6 59 -6 92zM471 106 q0 51 37 90.5t88 32.5h6q25 0 33 -4q123 -14 123 -125q0 -74 -62 -108q-35 -20 -59 -21h-10q-25 -4 -41 11q-115 25 -115 124z" />
<glyph unicode="&#x22;" d="M319 1260v8q139 -8 154 -19l59 -8q9 -2 19 -4q0 -25 -16.5 -135.5t-22.5 -122.5q-18 -100 -45 -203l-2 -12q-16 -2 -31.5 -25.5t-30.5 -23.5q-18 0 -24 33q-4 23 -10 47q-16 39 -17 32q0 16 -12 121q-12 94 -8 109v6q0 33 -6.5 98.5t-6.5 98.5zM705 1260q0 6 2 8 q137 -8 151 -19q2 0 57 -8q21 -2 21 -4q0 -20 -17.5 -137t-21.5 -121q-2 -12 -10 -47q-12 -76 -35 -156l-2 -12q-16 0 -31.5 -24.5t-30.5 -24.5q-18 0 -24 33q-4 23 -8 47q-18 39 -19 32q0 16 -12 121q-12 94 -8 109v6q0 33 -6 98.5t-6 98.5z" />
<glyph unicode="#" d="M154 387q0 74 112 76h35h53l17 268q-106 0 -135 8q-41 16 -41 68q0 74 102 76q2 2 86 2l25 366q2 2 2 25q0 82 77 82q78 0 76 -103v-16l-26 -354h198l23 366q8 106 82 107q76 0 75 -88v-29l-26 -356q78 0 88 -2q100 -4 100 -76q0 -74 -110 -78q10 2 -90 2l-19 -268 q109 0 135 -10q43 -16 43 -68q0 -70 -104 -74h-86l-23 -368q-8 -106 -82 -107q-74 0 -73 103v14l26 358h-198l-25 -368v-25q0 -82 -78 -82q-80 0 -78 103v16l27 356h-88q-100 4 -100 76zM508 463h199l16 268h-199z" />
<glyph unicode="$" horiz-adv-x="778" d="M63 739q0 72 54 72q43 0 63 -57q33 -90 191 -90q72 0 129 32q68 39 67 107q0 86 -125 112q-117 23 -233 48q-125 47 -129 182v12q-4 86 61 148q57 55 150 75q-4 59 -4 64q0 78 59 78q41 0 51 -52q2 -8 6 -84q45 -2 125 -24q29 14 47 14q59 0 60 -141q0 -72 -62 -72 q-39 0 -57 47q-23 61 -143 62q-61 0 -111 -27q-61 -33 -61 -90q0 -76 127 -102q217 -45 235 -54q127 -53 127 -198q0 -188 -244 -248q8 -152 9 -158q0 -72 -58 -71q-51 0 -55 79l-8 144q-82 12 -146 37q-35 -33 -61 -33q-53 0 -57 80q-6 98 -7 108z" />
<glyph unicode="%" d="M164 494q0 43 61 63q766 250 783 250q59 0 59 -68q0 -43 -47 -57q-16 -4 -197 -64l-344 -112q-240 -78 -256 -78q-25 0 -42 20.5t-17 45.5zM182 979q0 119 84 202t203 83t202 -83t83 -202t-83 -203t-202 -84t-203 84t-84 203zM315 979q0 -63 45.5 -108.5t108.5 -45.5 t107.5 45.5t44.5 108.5t-44.5 107t-107.5 44t-108.5 -44t-45.5 -107zM469 256q0 119 84 202t203 83t201.5 -83t82.5 -202t-83 -203t-201 -84q-119 0 -203 84t-84 203zM602 256q0 -63 44 -108.5t108 -45.5q63 0 108 45.5t45 108.5t-45 107.5t-108 44.5t-107.5 -44.5 t-44.5 -107.5z" />
<glyph unicode="&#x26;" d="M154 295q0 211 196 326q-70 117 -69 198q0 123 94 215t217 92q68 0 143 -34q39 14 58 14q39 0 68.5 -32t29.5 -70q0 -61 -84 -107l-84 -45q-78 70 -129 70q-43 0 -76 -30t-33 -73q0 -33 58 -117l205 -296l47 167h108q135 0 135 -104q0 -94 -88 -100q-16 -57 -61 -164 q151 -1 151 -103t-135 -102h-125l-22 31q-82 -59 -230 -60q-162 0 -262 80q-113 88 -112 244zM358 295q0 -119 170 -119q58 0 111 27l-172 248q-109 -49 -109 -156z" />
<glyph unicode="'" d="M512 1260q0 4 2 8q137 -8 152 -19l59 -8q8 -2 18 -4q0 -25 -16 -135.5t-22 -122.5q-18 -100 -46 -203l-2 -12q-16 -2 -31.5 -25.5t-29.5 -23.5q-18 0 -25 33q-4 23 -8 47q-18 39 -18 32q0 16 -13 121q-12 94 -8 109v6q0 33 -6 98.5t-6 98.5z" />
<glyph unicode="(" d="M520 504q0 373 240 725q63 92 112 92q37 0 61.5 -23.5t24.5 -60.5q0 -25 -28 -72q-195 -305 -195 -628q0 -199 82 -435q25 -68 96 -200q29 -51 29 -90q0 -33 -20.5 -64t-51.5 -31q-55 0 -135 125q-215 340 -215 662z" />
<glyph unicode=")" d="M276 -201q0 8 84 170q66 123 89 203q51 172 51 322q0 182 -60 364q-18 61 -80.5 194.5t-62.5 178.5q0 35 19.5 62.5t52.5 27.5q53 0 129 -117q82 -129 155 -315q66 -170 66 -363q0 -227 -105 -469q-45 -102 -106 -196q-88 -143 -146 -144q-35 0 -60.5 23.5t-25.5 58.5z " />
<glyph unicode="*" d="M203 975q0 39 25.5 69.5t62.5 30.5q6 0 229 -71q2 18 0 83q0 8 2 82q2 68 15 93q18 43 77 43q92 0 93 -125v-27v-47q-2 -31 -2 -45q0 -20 2 -43q2 -6 4 -14q37 0 159 53q35 16 70 16q37 0 61.5 -30.5t24.5 -67.5q0 -63 -96 -94q-20 -12 -66 -21q-100 -18 -100 -35 l104 -145q33 -47 33 -78q0 -39 -27.5 -66.5t-66.5 -27.5q-35 0 -102 90q-41 59 -91 123q-20 -27 -94 -129q-14 -20 -30.5 -43t-34 -29t-37.5 -6q-37 0 -65.5 27.5t-28.5 66.5q0 37 68.5 124t70.5 95q-86 25 -225 84q-35 23 -35 64z" />
<glyph unicode="+" d="M117 602q0 88 143 86h94h152l2 10q12 0 12 78v92q0 20 -2 61.5t-2 59.5q0 23 2 25q-2 121 92 121q96 0 97 -115q2 0 0 -135t6 -187q0 -4 4 -8h254q6 0 14 2h14.5h8.5q104 4 104 -94q0 -55 -36 -75.5t-167 -22.5q213 4 -178 4q-4 -2 -6 -8q-18 -49 -18 -127q0 -35 2 -105 v-106q0 -102 -88 -103q-94 0 -101 119q2 -10 2 158v160q0 4 -26 6q-43 4 -86 2h-181q-113 0 -112 102z" />
<glyph unicode="," d="M340 -250q0 8 11 29.5t14 30.5q35 143 34 208q0 6 17.5 62.5t21.5 62.5q12 33 37 93q8 18 10 22q12 0 215 -27q21 -2 21 -4q0 -12 -82 -171.5t-104 -190.5q-29 -51 -76 -123q-27 -41 -66 -41q-53 0 -53 49z" />
<glyph unicode="-" d="M150 526q0 106 147 107q31 0 96 -2h99h305q25 0 70.5 2t68.5 2q143 0 143 -92q0 -104 -116 -103q-2 -2 -17 -2q-18 0 -59 2t-62 2q-31 -2 -250 -2h-143q-96 -2 -143 -2q-139 0 -139 88z" />
<glyph unicode="." d="M471 104q0 51 36 90t87 35h6q66 0 112 -33t46 -96q0 -74 -62 -108q-35 -20 -59 -21h-10q-27 -4 -43 11q-113 23 -113 122z" />
<glyph unicode="/" d="M178 -113q0 16 29 78q37 76 108 225q2 8 129 277q33 61 93 184q86 176 251 533q49 109 78 164q41 78 95 77q37 0 63.5 -24.5t26.5 -61.5q0 -29 -172 -391q-102 -211 -205 -424q-35 -68 -90 -194q-29 -57 -82 -166l-45 -96q-33 -59 -72 -154q-23 -37 -45 -72 q-29 -41 -70 -41q-35 0 -63.5 26t-28.5 60z" />
<glyph unicode="0" d="M203 725q0 217 90 375q109 195 311 194q135 0 234 -84q119 -100 161 -299q27 -129 27 -350t-88 -375q-109 -186 -315 -186q-160 0 -275 127q-94 102 -127 283q-18 109 -18 315zM393 774q0 -72 6 -235q4 -139 50 -236q59 -129 178 -129q113 0 168 131q41 99 41 230 q0 53 -9 221q-4 135 -49 233q-59 133 -172 133q-117 0 -172 -123q-41 -92 -41 -225z" />
<glyph unicode="1" d="M225 1212q0 41 39 70q35 23 139 49q98 27 146 27q2 0 6 -2t6 -2q27 0 77 9t77 9h6v-368q0 -111 -2 -332t-2 -332q0 -4 31.5 -10t34.5 -11.5t102 -15.5v-14q121 -31 121 -115q0 -92 -132 -92q-276 0 -329 4q-12 0 -23.5 6t-81.5 12q-76 4 -88 13q-106 14 -106 112 q0 88 108 107q80 8 168 26q-2 111 0 293v295q0 12 -2 193q-4 4 -14 4q-14 0 -74.5 -10.5t-75.5 -6.5q-29 -8 -47 -8q-37 0 -60.5 27t-23.5 63z" />
<glyph unicode="2" d="M113 158v4l28 28q2 2 226 187q121 96 352 303q94 94 94 176q0 147 -162 203q-68 -31 -198 -88q-14 -4 -39 -15q-6 -4 -39 -28q-23 -16 -45 -17q-39 0 -76 19q-45 23 -45 57q0 63 59 135q131 162 340 162q172 0 297 -100q131 -109 131 -277q0 -82 -32 -157 q-53 -121 -256 -287q-158 -127 -316 -256q125 -16 264 -45l47 -6q31 82 113 82q92 0 119 -84q16 -45 14 -160v-6q-37 -2 -100 -13q-43 -2 -111 -12q-18 -10 -80 -10q-27 0 -201.5 8t-349.5 23q-2 20 -8 51t-20 69q-6 6 -6 54z" />
<glyph unicode="3" d="M182 90q0 39 25.5 71t64.5 32q31 0 64 -29q51 -41 57 -45q59 -33 160 -33q317 0 317 207q0 137 -163 194q-31 6 -95 23q-80 25 -129 84q-12 16 -12 37q0 59 61 84q27 8 113 20q63 8 107.5 53.5t44.5 108.5q0 86 -60.5 132t-148.5 46q-131 0 -193 -65q-47 -49 -92 -49 q-98 0 -98 77q0 70 80 129q63 45 146 72t165 27q160 0 278 -92q131 -100 132 -254q0 -88 -50 -156q-33 -45 -118 -113q37 -27 57 -41q184 -115 184 -305q0 -199 -164 -307q-139 -94 -348 -94q-125 0 -233 37q-152 51 -152 149z" />
<glyph unicode="4" d="M270 299q0 29 2 86v86q0 8 17.5 47t17.5 45l47 139v3q0 14 21.5 58t21.5 62q0 12 20.5 55.5t20.5 49.5t25.5 49t34.5 53q49 78 100 158q23 0 59 8q63 10 183 21q2 -2 10 -56l10 -73q16 -125 41 -287q6 -23 10 -49q6 -4 7 -133q43 0 75 -54q27 -45 27 -92q0 -80 -100 -84 q-2 -10 0 -20v-58q0 -18 10 -57t10 -59.5t32 -61.5t32 -51t-18.5 -30.5t-31.5 -26.5q-47 -23 -262 -23q-10 0 -29.5 -2t-27.5 -2q-72 0 -72 47l12 31q0 4 23 31q12 6 25 6q10 0 37.5 -6.5t46.5 -6.5h26q-4 14 -4 86v68q0 76 -6 94q-20 0 -59 -7t-60 -7q16 0 -88 8l-84 -35 q-76 6 -84 6q-12 0 -37.5 -8t-38.5 -8h-2zM461 532h2q78 0 86 7l12 4q49 6 127 18q35 4 35 8v80q2 51 2 78q0 109 -16 166q-4 41 -17 90q-2 -4 -24 -39q-35 -57 -107 -168q-14 -18 -37 -59q-8 -23 -22 -66l2 -2q0 -6 -8.5 -20.5t-8.5 -22.5t-13 -35.5t-13 -38.5z" />
<glyph unicode="5" d="M160 330q0 61 119 61q33 0 67 -37q49 -51 76 -67q63 -37 162 -37q154 0 223 55q78 63 78 215q0 78 -64.5 153t-140.5 75q-18 0 -54 5t-55 5q-35 0 -61 -15q2 10 -8 11q-10 0 -42 -15.5t-48 -15.5q-12 0 -36 13.5t-36 13.5q-70 0 -70 112q0 98 2 258q2 205 2 258 q39 8 107 21q2 2 27 8q18 4 55 10q12 4 35 10q61 16 174 17h63q41 -2 62 -2q186 0 186 -86q0 -72 -115.5 -92.5t-240.5 -20.5q-133 0 -148 -6q-20 -8 -20 -178q0 -33 6 -45q72 10 127 10q209 0 339 -125t130 -334q0 -215 -134 -334.5t-354 -119.5q-137 0 -256 45 q-158 61 -157 174z" />
<glyph unicode="6" d="M215 588q0 219 109.5 407.5t302.5 282.5q123 61 227 61q68 0 117 -18q70 -29 69 -86q0 -84 -98 -92q18 0 -55 0q-25 0 -47 -17q-31 -23 -43 -28q-18 -4 -56 -15q-131 -41 -215 -150.5t-102 -248.5q86 68 129 90q70 35 154 35q164 0 274.5 -127t110.5 -295 q0 -193 -115 -305.5t-309 -112.5q-233 0 -355 201q-98 166 -98 418zM381 410q47 -256 248 -256q96 0 149 61.5t53 159.5q0 102 -55 174q-61 80 -162 80q-158 0 -233 -219z" />
<glyph unicode="7" d="M174 1055q0 4 33 10q41 4 96 18q27 4 78 19q33 20 111 20q27 0 80 -7t81 -7h221q137 0 127 0q2 -27 14.5 -80t12.5 -90q0 -16 -45 -123q-18 -57 -59 -172q-43 -133 -138 -397q-31 -100 -100 -293q-29 -61 -41 -78q-27 -35 -74 -35q-27 0 -50 17.5t-23 44.5q0 23 9 68.5 t9 68.5q0 6 -1 9t-3 7q0 12 5 34t5 37t135 353q37 106 115 316q0 18 16.5 60t16.5 63q0 8 -6 8q-35 0 -104.5 -13.5t-104.5 -13.5h-4q-6 4 -74 21q-6 0 -34.5 -10.5t-33.5 -8.5q-8 -84 -94 -84q-102 0 -119 51q-20 6 -20 58q0 23 -18.5 64.5t-18.5 64.5z" />
<glyph unicode="8" d="M168 369q0 156 121 260q31 20 92 67q-78 76 -111 127q-43 74 -43 162q0 160 129 264q121 98 287 99q158 0 277.5 -107.5t119.5 -263.5q0 -104 -53 -172q-35 -45 -137 -119q92 -74 131 -137q49 -80 49 -184q0 -172 -127 -279q-119 -98 -295 -98q-186 0 -307 96 q-133 104 -133 285zM348 369q0 -92 86 -148q74 -49 172 -49q92 0 161 52.5t69 142.5q0 88 -84 151q-76 61 -166 62q-90 0 -164 -60.5t-74 -150.5zM418 977q0 -72 67.5 -132.5t139.5 -60.5q-2 0 22 7q18 0 58 6q66 14 109.5 64t43.5 118q0 84 -70 137q-66 47 -153 47 q-90 0 -150 -47q-68 -51 -67 -139z" />
<glyph unicode="9" d="M223 766q0 195 116 306.5t312 111.5q57 0 121 -23q320 -111 320 -596q0 -217 -116 -406.5t-310 -277.5q-129 -59 -230 -59q-70 0 -125 22q-72 31 -71 90q0 78 98 97q14 2 88 10q20 4 59 14q139 27 213 90q143 121 176 316q-86 -70 -116 -88q-59 -33 -140 -33 q-92 0 -157 29q-109 49 -176 163q-61 109 -62 234zM422 766q0 -102 53 -170q57 -74 158 -74q159 0 237 203q-16 117 -71 188q-66 84 -174 84q-98 0 -150.5 -65.5t-52.5 -165.5z" />
<glyph unicode=":" d="M471 104q0 51 36 90t87 35h6q66 0 112 -33t46 -96q0 -74 -62 -108q-35 -20 -59 -21h-10q-27 -4 -43 11q-113 23 -113 122zM471 727q0 53 36 92t87 35h6q27 0 35 -6q123 -12 123 -123q0 -76 -62 -111q-35 -18 -59 -18h-10q-27 -4 -43 8q-113 25 -113 123z" />
<glyph unicode=";" d="M340 -250q0 8 11 29.5t14 30.5q35 143 34 208q0 6 17.5 62.5t21.5 62.5q12 33 37 93q8 18 10 22q12 0 215 -27q21 -2 21 -4q0 -12 -82 -171.5t-104 -190.5q-29 -51 -76 -123q-27 -41 -66 -41q-53 0 -53 49zM432 733q0 57 40 90t99 33q61 0 104.5 -35t43.5 -94 q0 -129 -146 -129q-59 0 -100 37t-41 98z" />
<glyph unicode="&#x3c;" d="M158 537q0 -2 86 49q76 37 211 112q8 4 69 37l135 72q31 16 70 39q18 8 148 78q47 29 129 67l65 -135l-22 -14q-29 -14 -82 -51q-39 -20 -107 -62q-76 -41 -219 -127q-4 -4 -57.5 -33.5t-53.5 -31.5t43 -27t48 -27q47 -25 137 -84q25 -12 69 -41l64 -36q57 -33 168 -101 q4 -4 10 -8q0 -4 -32.5 -68.5t-37.5 -68.5q-199 111 -598 325q-66 35 -120 66z" />
<glyph unicode="=" d="M117 428q0 41 29.5 64.5t70.5 23.5h6h154q104 -2 155 -2q102 0 437 4q70 0 100 -14q43 -22 43 -88q0 -88 -117 -88q-4 -2 -28 -2q-18 0 -56.5 2t-56.5 2q-100 0 -301 -2t-301 -2q-135 0 -135 102zM117 776q0 57 51 78q29 10 98 10q27 0 82 -2h80q129 0 541 2 q70 2 100 -14q43 -20 43 -86q0 -88 -117 -88q-4 -2 -30 -2q-18 0 -55.5 2t-55.5 2q-98 0 -295 -2t-295 -2q-72 0 -102 14q-45 23 -45 88z" />
<glyph unicode="&#x3e;" d="M158 211l22 14q29 14 82 51q39 20 107 62q76 39 219 127q4 2 57 31.5t53 31.5q-6 6 -24 17q-70 39 -146 86l-43 24q-31 16 -82 52q-4 4 -65 38q-51 29 -152 89q-12 8 -24 18q0 6 49 106q8 16 16 33q6 0 210 -110.5t222 -124.5q10 -8 170 -92q41 -20 119 -66 q123 -72 123 -70t-84 -47q-78 -37 -213 -114q-6 -4 -57 -31q-80 -37 -217 -115q-14 -10 -139 -75.5t-138 -69.5z" />
<glyph unicode="?" d="M233 969q0 117 17 153q2 16 8 35q2 2 49 25q180 82 318 82q176 0 290.5 -108t114.5 -284q0 -127 -98 -223q-66 -66 -209 -141q-49 -158 -113 -158q-88 0 -88 115v22q0 53 2 86q33 25 84 58q20 12 60 39q158 96 157 223q0 80 -62.5 136t-144.5 56q-119 0 -196 -61 q0 -8 5 -22.5t5 -22.5q0 -129 -96 -129q-47 0 -75 35t-28 84zM471 106q0 47 34 85t83 38q39 0 49 -4q121 -12 121 -125q0 -51 -36 -91t-85 -38h-8q-25 -2 -37 4q-53 6 -87 42t-34 89z" />
<glyph unicode="@" d="M145 680q0 233 109 399q125 190 344 191q160 0 263.5 -105.5t113.5 -265.5l29 -575q51 -17 51 -76q0 -63 -78 -80q-10 -2 -127 -8v6q-51 -10 -84 -10q-131 0 -225.5 93t-94.5 224q0 147 115 244q102 90 254 108l-2 66q-6 94 -63.5 155.5t-149.5 61.5q-147 0 -227 -154 q-66 -123 -66 -286q0 -20 19 -353q10 -178 73 -301q86 -162 242 -161q147 0 223 73q14 14 26.5 24.5t35.5 14.5h6q35 2 58.5 -23.5t23.5 -60.5q0 -90 -152 -145q-119 -43 -227 -43q-223 0 -350 196q-106 164 -119 404l-19 346q-2 20 -2 41zM608 471q0 -68 54 -111 q47 -37 116 -36q31 0 64 6l-17 329q-86 -12 -145 -57q-72 -51 -72 -131z" />
<glyph unicode="A" d="M18 143q33 18 68 37q8 4 20 17q25 33 70 165q6 16 28.5 70.5t74.5 188.5q133 336 133 329q0 6 -19.5 12.5t-21.5 13.5t-20.5 15t-22.5 10q-57 35 -68 46q-31 29 -31 73q0 41 26 79t64 38q4 0 17.5 -2t18.5 -4t112.5 -17.5t118.5 -23.5q39 -4 86 -14l63 -11 q10 -29 31.5 -83t62.5 -154q74 -180 215 -541q25 -57 70 -174q135 -33 135 -125q0 -49 -53 -72q-41 -18 -96 -18h-8q-16 0 -52 2t-55 2q-23 0 -69 -2t-68 -2q-76 0 -96 86q-8 35 -9 45q0 61 41 84q23 12 95 20q-14 47 -43 119q-12 23 -271 23q-188 0 -198 -21 q-14 -43 -50 -121q72 -4 99 -16q45 -20 45 -78q0 -96 -62 -133q-12 -6 -108 -6q-25 0 -74 -2t-74 -2q-41 0 -47 4h-5q-111 0 -111 86q0 35 38 57zM496 561q102 -10 202 -10q18 0 41 4l13 2q0 16 -69 192.5t-77 182.5q-149 -334 -149 -361q0 -6 39 -10z" />
<glyph unicode="B" d="M55 88q0 98 121 98q2 6 6 19q2 6 14.5 15t12.5 11l2 734q0 2 -10.5 9t-12.5 13q-10 12 -42.5 20.5t-45.5 20.5q-22 19 -22 71q0 53 14 101q9 31 100 31h11q150 0 448 -2q164 -4 256 -64q166 -109 166 -284q0 -129 -135 -238q6 -4 66 -47q143 -98 143 -260 q0 -164 -123 -256q-113 -82 -279 -82h-145q-43 0 -313 2q-16 0 -47 -2h-47q-137 0 -138 90zM406 197q4 -2 14 -4q104 -14 299 -15q223 0 223 156q0 98 -100 153q-82 45 -189 45h-59q-57 0 -148 -10q-39 -6 -38 -10v-92zM410 844q2 -61 2 -92q0 -2 24.5 -7.5t24.5 -8.5 t37 -11q75 -14 105 -14h7l6 2q4 0 13.5 -2t13.5 -2q53 0 135 43q92 47 92 141q0 78 -69 119q-59 37 -144 37q-72 0 -90 -7q-43 -6 -123 -16q-18 -2 -34 -8v-82v-92z" />
<glyph unicode="C" d="M59 498q0 23 2 45q-2 10 -2 32q0 98 23 134q4 6 10 34q6 41 21 121q33 131 149 242q158 154 379 154q143 0 328 -86q30 30 70 30h3q45 0 70 -39t25 -88q0 -90 -4 -92l-7 -80l-2 8l-6 -4q-14 -75 -76 -75h-2q-74 0 -137 75q-25 31 -29 41q-16 45 -63 70q-74 39 -166 39 q-109 0 -203 -58.5t-135 -158.5q-12 -31 -22 -82q-14 -70 -15 -103q0 -186 11 -235q31 -125 147 -199q104 -65 238 -65h4q111 0 190 20q53 14 96 58q27 31 54 61q39 39 63 39q37 0 62.5 -26.5t25.5 -63.5q0 -66 -69 -142q-43 -47 -95 -69q-156 -66 -292 -66q-88 0 -170 15 q-113 18 -218.5 90.5t-166.5 169.5q-90 139 -91 254z" />
<glyph unicode="D" d="M31 90q0 90 114 94q12 10 13 265q0 86 -2 262v264q-100 8 -101 96q0 35 19 88q8 16 24 51q18 10 45 11v2q2 2 9 2q20 4 100 4h14q129 0 140 -4h18q23 0 69 3t68 3q219 0 367 -123q209 -175 209 -451q0 -188 -21 -270q-39 -156 -149 -254q-129 -113 -357 -127 q-141 -10 -405 -10q-55 0 -107 20q-68 29 -67 74zM358 307q0 -14 2 -43v-43q0 -2 27 -7t27 -8t10 -7q59 -20 151 -21q-6 0 41 6q94 12 140 37q131 72 162 211q16 76 16 219q0 272 -234 371q-61 27 -98 27q-236 0 -240 -25t-4 -113q0 -18 2 -53t2 -51q0 -39 -2 -113v-237v-76 q-2 -49 -2 -74z" />
<glyph unicode="E" d="M80 1061q0 78 106 84l-2 10q49 6 131 33l-6 -6q23 4 70 14q10 14 235 23q139 6 277 10q25 2 74 6q2 -23 16 -68q8 -18 13 -35.5t14 -48.5q4 -18 17 -58t13 -62q0 -88 -67 -89q-49 0 -64 60q-2 14 -6 100l-14 -4q-16 8 -52 9t-53 5q-39 14 -157 15q-201 0 -208 -4t-14 -82 q-8 -68 -8 -92q0 -37 4 -113q23 -6 70 -12q25 0 70 -2l2 -27l26 39q6 76 45 76l9 -2q43 -49 116 -113q2 -20 15 -59q4 -16 8 -29q10 -20 10 -104q0 -104 -78 -105q-33 0 -57 98q-43 -20 -70 -20q-29 0 -110 16q-6 -16 -9 -35q2 0 3 -2q0 -2 -5 -4q-4 -25 -4 -55q0 -8 -8 -10 q-8 -39 -8 -74q0 -16 4 -92q29 -2 74 -10q27 -10 67 -13q33 0 66 -2q18 -2 27.5 -6t89.5 -10q4 0 12 -4q31 -2 92 -12l-10 12q31 -2 35 8q10 27 12 29q16 18 24.5 60t20.5 58q20 25 74 25q51 0 69 -51q12 -29 17 -105q6 -68 16 -84q8 -27 8 -61q3 1 3 5q0 2 -1 5 q-20 -10 -90 -22q-61 -10 -92 -29l6 4l-30 -8q-6 -14 -99 -18h-121q-16 -2 -237 -17q-143 -10 -238 -10q-121 0 -121 70q0 68 107 77q18 8 45 35q-2 68 -18 369q-4 123 -17 368q-14 10 -22 15q-14 12 -47 20q-70 18 -70 111z" />
<glyph unicode="F" d="M63 84q0 23 19 51q31 51 102 51q2 4 6 13q14 6 29 20v55l-2 609q0 14 2 41v43q0 4 -8 9t-10 9l-6 6q-113 35 -113 123q0 86 100 94q-2 2 8 4q4 0 31 2h10q4 2 2 3l25 6q2 6 72 6h55h54.5h47.5q31 -2 48 -2q45 0 134 2t134 2h297q4 0 6 -27q4 -55 4 -223q0 -172 -88 -172 q-53 0 -78 49q-6 12 -26 92q-10 49 -27 99v2h-215q-135 0 -238 -17q-8 -2 -13 -6t-7 -188v-49q2 -37 2 -52q0 -2 26.5 -7t26.5 -8t6 -5q25 -6 96 -6q6 74 37 99.5t107 25.5q45 0 57 -29q10 -18 10 -70q0 -6 -2 -17t-2 -17q0 -31 2 -91.5t2 -89.5q0 -70 -10 -98 q-20 -47 -78 -47q-76 0 -94 141q-16 14 -168 15q-2 0 -2 -3q-4 -12 -8 -59q-6 -100 -6 -197q0 -23 49 -30q29 -4 53.5 -6t59.5 -7v-14q110 -14 110 -121q0 -100 -94 -100q-37 0 -124 2t-132 2q-23 -2 -72 -3t-75 -1q-131 0 -132 86z" />
<glyph unicode="G" d="M53 498q0 6 2 18t2 19q0 6 -2 16v16q0 57 15.5 105.5t31.5 95.5q12 70 56 201q70 139 204 217q129 74 291 74q172 0 289 -56q31 18 66 19q88 0 112 -54q16 -33 17 -131q0 -115 -4 -135q-16 -82 -84 -82q-47 0 -86 78q-10 8 -23.5 43t-19.5 45q-59 90 -258 90 q-166 0 -273.5 -99t-114.5 -263v-133q0 -90 15 -136q43 -127 166 -215t254 -88q49 0 104 11l86 61q10 0 27.5 28.5t27.5 28.5q2 2 4 15q-2 27 5 63h-7q-23 0 -161 23l-43 6h-19q-12 -2 -18 -2q-86 0 -86 39q0 25 19.5 41t47.5 55q12 25 16.5 28t26.5 5q115 4 324 4 q106 0 139 -49q10 -14 10 -45q0 -68 -75 -93q-3 -7 -3 -109q0 -51 1 -126q-33 -31 -66 -59q-45 -39 -72 -48q-164 -51 -319 -51q-449 0 -584 361q-41 109 -41 168z" />
<glyph unicode="H" d="M33 88q0 57 110 94q10 2 25 8q12 16 12 175v65q2 45 2 66v69q-2 51 -2 68q0 18 2 49t2 47l-2 293l-14 8q-31 25 -62 47q-33 31 -32 66q0 88 116 88q4 2 27 2q14 0 44 -2t44 -2t43 2t43 2q23 0 29 -4q117 0 117 -88q0 -43 -41 -77t-88 -44l-25 -4v-43v-46.5v-45.5 q-2 -31 -2 -47q0 -18 12 -70q14 -57 25 -57h252h73q47 2 74 2h-2q4 2 10 21.5t11.5 19.5t16.5 40.5t11 55.5v160q-63 4 -90 16q-43 20 -43 74q0 88 45 121q12 10 205 10q117 0 152.5 -25.5t35.5 -60.5q0 -29 -36.5 -77t-67.5 -60q2 -63 2 -191v-102q-2 -63 -2 -103v-397 q0 -10 25 -37q10 -12 36 -33q25 -10 51.5 -19t26.5 -36q0 -88 -109 -88h-5h-11.5h-27.5q-18 2 -27 2h-92q-63 -2 -92 -2q-109 0 -109 106q0 49 21 86q25 45 69 46h19v14q2 4 14 10t12 10q0 203 -14 209l-6 45q-33 -1 -75 -1t-93 1q-143 2 -168 2q-84 0 -117 -10 q-12 -4 -12 -8v-252q0 -6 10 -14.5t12 -12.5l3 -4q8 -10 30.5 -13t28.5 -7q53 -27 53 -105q0 -74 -53 -96q-12 -6 -62 -4q-159 0 -159 2h2q-61 -2 -68 -2q-145 0 -145 88z" />
<glyph unicode="I" d="M221 1141q0 90 121 90q20 0 64 -2h63q63 0 191 2t192 2q80 0 107.5 -23.5t27.5 -105.5v-25q2 -14 2 -22q0 -53 -80 -109q-33 -20 -96 -20q-74 0 -98 -8l-2 -222v2v-8v-317q0 -143 3 -148.5t75.5 -15.5t80.5 -18q66 -10 91 -27q45 -25 45 -78q0 -90 -152 -90h-68 q-43 -2 -65 -2q-72 0 -119 6q-104 12 -145 33q-18 8 -53 12q-49 6 -56 8q-33 8 -67 35q-41 33 -41 62q0 90 108 90v2q23 8 120 10t108 8v148v295q-2 195 -3 292q0 14 -2 21q-2 14 -112 20q-117 8 -129 17q-111 16 -111 86z" />
<glyph unicode="J" d="M207 231q0 147 24 148q39 0 81 -39t42 -72v-157q0 1 2 1q10 0 62 -18q73 -28 125 -28h4l20 8q27 20 56 51q92 23 116 88q14 39 15 166q0 41 -2 121v123q0 59 4 204.5t4 198.5l-86 6q-51 -6 -119 -6q-39 0 -76 -2q-33 4 -33 45q0 43 23 82q25 47 63 47h19v4q14 0 31 4 q39 4 90 13q2 2 17.5 5t45.5 5q-2 0 189 0h49q33 2 49 2q139 0 139 -90q0 -70 -76 -86q-63 -4 -129 -11h-4v-327q-2 -37 -2 -109q1 -34 1 -65q0 -155 -17 -242q-31 -156 -137.5 -272.5t-225.5 -116.5q-106 0 -354 90q-10 131 -10 229z" />
<glyph unicode="K" d="M33 1141q0 43 55 67q45 20 92 21q57 0 109 -4q27 0 26.5 -4t8.5 -7q41 -4 122 -20q106 -31 107 -119q0 -63 -55 -84q-25 -8 -113 -16q2 -8 4 -41q0 -18 4 -55q0 -2 4 -3.5t10.5 -30t10.5 -28.5q31 -72 28 -72q8 6 37 31q289 252 295 271q-63 33 -63 94q0 47 59 69 q43 17 94 17h6h17q23 0 65 -2q10 -2 33 -6.5t64 -10.5q27 -4 57.5 -33.5t30.5 -54.5q0 -51 -51 -88q-43 -33 -99 -43q-258 -223 -258 -228t-31.5 -45t-31.5 -44q18 -14 53 -41q145 -125 260 -338q14 -29 43 -84q33 -8 78 -27q68 -23 78 -28q39 -23 39 -66q0 -86 -105 -86 h-10q-4 -2 -14 -2t-33 2h-31h-56h-57q-53 0 -55 4q0 27 -16 90q-53 129 -139 246q-102 141 -201 188l-15 -8q-4 0 -17 -8t-16 -8t-35 -35t-32 -39v-74q-2 -49 -2 -73q0 -43 2 -66q6 -4 14 -12q8 -16 29 -23q31 -8 35 -12q37 -14 72 -29q39 -20 39 -57q0 -86 -115 -86 q-4 -2 -21 -2q-12 0 -36.5 2t-36.5 2q-35 0 -105.5 -2t-105.5 -2q-49 0 -78 49q-25 43 -25 94q0 57 41 80q27 14 92 23v571q0 35 -2 109.5t-2 113.5q-72 10 -100 23q-51 25 -51 80z" />
<glyph unicode="L" d="M92 84q0 78 125 102q49 8 102 29v199v366v80q2 55 3 80l-17 6q-4 6 -78 17q-39 31 -74.5 63.5t-35.5 87.5q0 26 46 44q41 15 41 38q0 3 -1 6q2 2 2 6t-4 6.5t-4 8.5t77 6h320q151 0 151 -87q0 -77 -114 -89q-33 -4 -103 -11q-6 -18 -6 -436q0 -59 -2 -178v-178 q4 -4 17 -6q20 -2 61 -11q2 -2 20.5 -6t51.5 -10q2 0 4 -2t6 -2q49 -14 49 -12q0 -6 37 -11q59 -8 129 -8q2 4 2 15q4 25 8 51q4 4 17 86q16 110 97 110h1q8 0 22.5 2.5t22.5 2.5q51 0 72 -46q4 -6 4 -159l2 -230q0 -4 -29 -8q-51 -6 -104 -6h-240h-68q-47 -2 -67 -2 q-49 0 -150 2h-147q-18 0 -55 -2t-56 -2q-135 0 -135 88z" />
<glyph unicode="M" d="M-43 90q0 78 102 80q27 18 27 403q0 29 2 88.5t2 88.5q0 176 -6 278q-113 61 -113 115q0 61 70 74q14 2 117 2q16 0 47 2h45q10 0 38.5 -6.5t30.5 -12.5q10 -27 31 -78q74 -158 211 -473q29 -73 41 -73q8 0 25.5 25.5t21.5 25.5t27 24h-2q18 6 94 176q57 125 86 199 q20 43 55 131l13 2q14 2 22 8q18 12 63.5 19.5t65.5 21.5q12 10 60 11q45 0 84 -19q47 -22 47 -63q0 -57 -58 -74q-10 -2 -28 -6q-27 -8 -27 -228l2 -612q102 -14 102 -113q0 -98 -110 -98h-33q-23 2 -33 2q-31 0 -90 -2h-90q-125 0 -125 78q0 25 18.5 56.5t39 35.5t94.5 4 q41 0 47 11q2 25 2 55q0 63 -3 189t-3 188q0 29 2 84t2 84q0 35 -15 45q-8 -2 -38 -70q-35 -76 -39 -82q-10 -14 -35 -78q-10 -23 -35 -82q-31 -86 -104 -247q-59 -10 -142 -37q-10 -2 -16 -4q-16 25 -45 100q-6 16 -58 123l-127 272l-47 -536q25 -10 52 -11q10 0 28 2h29 q33 0 33 -32q0 -33 -13 -80q-16 -53 -39 -64q-10 -6 -38 -6q-123 0 -213 2q-154 4 -154 82z" />
<glyph unicode="N" d="M10 1157q0 68 99 70q139 2 206 2q8 0 56.5 -55.5t54.5 -55.5t24.5 -23.5t18.5 -27.5q0 -31 182 -307q164 -250 226 -328q2 23 14 66q20 55 20 211q0 66 2 272q-84 8 -114 23q-53 25 -54 92q0 133 74 133q45 0 137 -2h138q125 0 125 -88q0 -86 -111 -90q-12 -10 -12 -433 q0 -49 -2 -144t-2 -144v4l4 -322q-33 -10 -174 -12q-27 43 -84 125q-43 66 -131 190q-100 150 -304 445q-14 20 -110 123q-8 -66 -31 -199v-2q-14 -72 -14 -86v-289q0 -4 20.5 -18.5t22.5 -17.5t12 -11q4 -2 16 -2q53 -8 107 -33q70 -35 70 -76q0 -113 -93 -131 q-39 -2 -92 -12q-27 -6 -84 -6q-211 0 -211 92q0 88 113 90q16 14 16 445q0 66 2 186q2 147 3 186q-84 14 -112 45t-28 115z" />
<glyph unicode="O" d="M78 860q78 176 220 277.5t329 101.5q180 0 338 -125q152 -121 204 -299q37 -117 37 -250q0 -76 -26 -166q-59 -197 -209 -319q-158 -129 -359 -129q-260 0 -430 203q-159 189 -159 451q0 134 55 255zM233 565q0 -168 109 -295q113 -137 276 -137q158 0 271 139 q106 133 106 293q0 299 -219 447q-66 45 -172 45q-37 0 -90 -21q-92 -33 -163.5 -117.5t-94.5 -183.5q-23 -90 -23 -170z" />
<glyph unicode="P" d="M55 1139q0 41 28 65.5t69 24.5h6q33 0 102 -2h102h66q43 2 66 2q102 0 180 -2q168 -8 284 -113q121 -110 121 -274q0 -154 -88 -250t-239 -129q-70 -16 -312 -17q-2 0 -6 -11t-6 -12t-4 -7t-4 -92q-2 -25 -2 -31q0 -12 2 -35v-35q0 -2 31.5 -9t31.5 -10t28 -8.5t85 -17.5 q70 -16 80 -22q39 -20 39 -70q0 -86 -115 -86q-6 -2 -47 -2q-31 0 -93.5 2t-94.5 2q-27 0 -82 -2h-82q-66 0 -91.5 22.5t-25.5 88.5q0 68 37 100q29 25 100 45q-2 125 -2 741q0 18 -16.5 29.5t-30.5 23t-41 27.5q-25 10 -50.5 22.5t-25.5 41.5zM416 961q0 -154 10 -279 q2 -55 8 -55l170 2q68 2 86 4q43 6 80 31q53 33 72 73q26 52 26 101q0 125 -106 178q-63 31 -109 31h-51q-10 0 -44 -9.5t-34 -13.5t-10 -8t-10 -6l-15 -9q-37 -18 -73 -40z" />
<glyph unicode="Q" d="M16 616q0 121 43 238q78 219 283 338q115 68 256 68q186 0 322 -93q125 -86 203.5 -234.5t78.5 -299.5q0 -162 -74 -301q-76 -145 -210 -221q-37 -20 -105 -39q-80 -20 -105.5 -31.5t-68.5 -28.5l4 -41q16 2 57 13q35 8 58 8q59 0 143 -23q45 -10 72 -10q35 0 78 25.5 t65 25.5q39 0 65.5 -25.5t26.5 -64.5q0 -55 -41 -87t-125 -56q-76 -20 -135 -21q-39 0 -124 23.5t-126 23.5q-72 0 -231 -39q-16 -4 -31 -4q-70 0 -125 37q-63 41 -63 107q0 31 60.5 100.5t60.5 75.5q-168 109 -240 228.5t-72 307.5zM221 592q0 -135 75 -250t196 -162 q64 -26 120 -26h4q174 0 281 153q94 140 94 320q0 166 -102 301q-113 145 -275 145q-180 0 -292 -153q-100 -139 -101 -328z" />
<glyph unicode="R" d="M51 90q0 37 39 62q35 18 70 34q23 8 49 27v262v57v447q0 2 -10.5 7t-12.5 7q-37 23 -74.5 45.5t-37.5 69.5q0 29 14 84q8 37 96 37q70 0 156 -2h61q47 2 64 2q94 0 168 -2q111 -6 186 -37q236 -102 236 -328q0 -109 -64 -188q-49 -61 -155 -125q109 -92 223 -313 q4 -8 14 -27l27 -10q43 -14 84 -29q47 -21 47 -64q0 -45 -42 -78.5t-89 -33.5h-20.5t-77 12t-68.5 19q-35 74 -119 217q-92 133 -174 192q-18 12 -19 13.5t-202 46.5q-2 2 -6 -21q-8 -55 -8 -229q0 -2 19 -7.5t21 -9.5q78 -31 82 -32q43 -25 43 -70q0 -84 -47 -109 q-31 -16 -121 -16h-88q-59 2 -88 2q-10 0 -28 -2h-29q-119 0 -119 90zM406 1014q-2 -44 -2 -104q0 -89 4 -212q4 -27 8 -26h66.5h60.5q68 0 119 12q72 18 122 61q58 51 58 117q0 82 -76 137q-72 49 -156 50q-74 0 -174 -25q-31 -8 -30 -10z" />
<glyph unicode="S" d="M133 248q0 78 10 108q18 55 80 56q37 0 74 -60q20 -35 41 -71q33 -59 119 -97q74 -34 147 -34h4q102 0 178 36q94 49 95 142q0 102 -185 157q-307 90 -342 109q-182 96 -182 301q0 170 147 272q131 92 308 93q145 0 250 -62q33 27 63 27q92 0 104 -113q6 -10 7 -170 q0 -90 -90 -90q-74 0 -113 66q-10 25 -33 49q-91 110 -195 110h-2q-23 0 -55 -4q-70 -10 -123 -53q-61 -49 -61 -115q0 -100 143 -147q150 -39 297 -78q182 -61 246 -193q31 -61 31 -165q0 -166 -152 -267q-131 -86 -305 -86q-158 0 -293 66q-39 -37 -76 -37 q-90 0 -113.5 48t-23.5 202z" />
<glyph unicode="T" d="M92 1167l141 33q43 8 91 23q43 8 47 8q125 -6 184 -6q45 0 134 2t134 2q41 0 125 -3t125 -3q2 -2 4 -9q2 -12 4 -43q6 -76 21 -155q4 -51 14 -105q4 -2 14 -6q4 -4 10.5 -14.5t5.5 -22.5q0 -39 -52 -65q-43 -23 -86 -23q-59 0 -61.5 80t-6.5 166q-6 6 -199 6l-2 -4 q-2 -16 -10 -47q0 -4 -2 -6t-4 -10q-2 -16 -9 -45q-5 -23 -5 -72v-31v-541q0 -6 41 -15t41 -13q10 -2 24 -8q61 -18 76 -29q35 -23 35 -66t-27 -84t-64.5 -45t-86.5 -8q-23 -4 -25 -6t-16 -4h-60q-174 0 -223 2q-27 0 -78 6q-84 20 -84 78q0 86 129 96q55 2 115 15 q4 6 4 157v586q-2 2 -6 2l-49 14l-9 4q-55 8 -112 27v-20q0 -70 -2 -71t-6 -13q-14 -55 -25 -72q-23 -37 -63 -37q-92 0 -109 109q-4 37 -14 108q-4 18 -11 55q-2 16 -4 48q-2 8 -4 27.5t-4 47.5z" />
<glyph unicode="U" d="M10 1139q0 88 117 88q4 2 23 2h264q131 0 131 -90q0 -61 -86 -84q-96 -25 -105 -43l-8 -8l-6 -5q0 -29 2 -82t2 -79q0 -29 -2 -87.5t-2 -86.5v-119q2 -78 2 -119q0 -47 8 -78q20 -84 99 -138t167 -54q27 0 89 16q174 47 190 197q0 25 6 71q0 2 4 142q2 78 2 336 q0 4 -10 11t-10 11q0 23 -37 33q-63 20 -84 41q-29 27 -29 88q0 12 3 35.5t3 36.5q12 37 15 40q10 14 43 15h145q127 0 162 -6q111 -16 111 -82q0 -92 -111 -97l-4 -16q-14 -8 -14 -311v-289q0 -209 -134.5 -334t-341.5 -125q-250 0 -389 181q-80 100 -88 278q-4 53 -4 238 q0 166 4 178q-3 18 -3 88q0 35 1 82q-39 8 -82 48t-43 77z" />
<glyph unicode="V" d="M0 1130q0 33 6 46q14 18 27 34q27 20 82 21h198q125 -2 170 -51q18 -20 19 -37q0 -41 -39 -58.5t-76 -31.5q-23 -6 -49 -21q90 -213 258 -641l10 -26q4 -10 2 -11q2 0 8.5 12.5t10.5 12.5t26.5 38t28.5 38l12 16q11 16 15 18q18 33 63 150q33 88 105 258q14 27 28 68 l-31 20q-63 45 -81 84q-29 57 -29 78q0 84 90 84q184 0 264 -4q43 -2 64 -4q35 -8 56.5 -26.5t21.5 -55.5q0 -94 -138 -115q-70 -156 -196 -469q-12 -35 -113 -272q-14 -35 -65 -158q-8 -23 -29 -68q-6 -10 -64.5 -24.5t-71 -25.5t-57.5 -15l-10 18q-18 31 -41 105 q-23 53 -67 159q-123 324 -269 670q-139 45 -139 184z" />
<glyph unicode="W" d="M-20 1122q0 14 4 23q10 27 122 45q86 14 144 14q229 0 229 -133q0 -47 -73 -61l-109 -11l96 -553l133 605l105 4l211 -631h6l41 596l-170 -10l-8 161l559 31l10 -162l-205 -10l-94 -985l-139 -8l-232 602h-12l-172 -625l-119 -6l-198 979q-49 14 -86 49q-43 41 -43 86z " />
<glyph unicode="X" d="M25 90q0 86 122 105q90 113 181 225q155 192 155 203q0 6 -51 67q-57 68 -63 74q-37 43 -95 121q-10 18 -75 94q-39 2 -75 38t-43 73.5t-7 58.5q0 45 45 70q18 10 147 10q113 0 150 -8q92 -18 92 -91q0 -33 -27 -61q-2 -4 -51 -47q45 -57 107 -141q6 -12 41.5 -53.5 t42.5 -41.5q2 0 34 37q23 27 95 109q16 18 47 57q-49 37 -49 82q0 25 32 98q10 27 13.5 30t27.5 18q16 8 64 8h135q25 0 74 -4q92 -18 92 -84q0 -76 -111 -95q-8 -2 -120.5 -137t-131.5 -164q-31 -33 -84 -100l13 -20q88 -113 200 -267q37 -41 97 -118q125 -33 125 -146 q0 -39 -27 -64.5t-66 -25.5h-174q-205 0 -205 92q0 78 109 105q-55 72 -129 172q-27 37 -57 77q-6 8 -7 9q-8 0 -55 -37q-6 -2 -74.5 -85t-78.5 -100q71 -16 71 -107q0 -75 -21.5 -101.5t-97.5 -26.5q-102 0 -188 4q-150 6 -149 88z" />
<glyph unicode="Y" d="M43 1141q0 61 53 78q25 8 103 8q10 0 28 2h27q-4 0 41 -2q113 -4 125 -6q76 -16 76 -82q0 -53 -76 -101q94 -137 203 -299l18 19q8 2 83 108.5t87 128.5q-51 33 -51 86q0 18 10 62q14 51 37.5 68.5t77.5 17.5q51 0 149 -2q152 -2 152 -90q0 -86 -137 -111 q-63 -94 -195 -281q-41 -61 -125 -182q-10 -16 -10 -311q14 -6 35 -14q10 -4 71 -11v-18q131 -53 131 -125q0 -86 -112 -86q-6 -2 -53 -2q-135 0 -310 4q-18 -1 -39 -1q-41 0 -90 5q-51 31 -51 129q0 55 92 107l19 10q2 2 80 8q6 0 20 2q4 0 8 2q0 172 -8 191q-2 49 -12 114 q-2 2 -39 56q-61 88 -185 266q-33 51 -106 151q-127 12 -127 101z" />
<glyph unicode="Z" d="M154 172q0 6 170 229q20 27 45 60l88 119q180 238 264 350q0 8 -53.5 20.5t-53.5 17.5t-21.5 9t-22.5 9t-49 11.5t-54 12.5q10 -90 10 -105q0 -84 -98 -84q-57 0 -80 29q-18 20 -31 82q-39 -4 -24 -4q-10 0 -25 123q-2 14 -6 32v13q-6 27 -12 84l32 6q0 2 68 14 q16 2 17 3t9.5 2t24.5 5q8 0 9 2t12.5 4.5t40.5 6.5q10 0 18 4q2 2 12.5 3t28.5 1q16 -4 111 -4q18 0 55 2h55q29 0 88 -2h88h43q29 2 45 2q4 0 12.5 -32t11.5 -32t9 -21.5t10 -21.5q23 0 23 -53q0 -4 -18.5 -36t-18.5 -34t-259 -358l-259 -356q2 -4 8 -4q35 -6 72 -17 q2 -6 42 -11t40 -10t37 -12q61 -8 129 -26v41q0 25 2 59q4 102 94 103q68 0 103.5 -43t39.5 -43l6 -5q2 2 7 5q10 0 8 -46q-2 -51 2 -55q2 -23 4 -51q2 -14 5 -45t3 -74q0 -4 -33 -10q-55 -6 -116 -21q-2 -2 -50.5 -11t-56.5 -9h-20.5h-26.5h-129h-127h-96q-33 0 -99 -2 h-100q-2 0 -7 19.5t-8 22.5t-19.5 48t-22.5 45t-6 39z" />
<glyph unicode="[" d="M492 -250q0 37 2 113v112v357q-2 238 -2 356v127q2 80 2 127q-2 248 2 289q0 33 2 69q2 8 84 9h116q18 -2 54 0q39 4 55 4q135 0 135 -92q0 -39 -35 -58.5t-67 -36.5q-16 -10 -52 -22l-96 -21v-122v-78q-2 -55 -2 -78v-399q0 -20 2 -56v-55v-55q-2 -37 -2 -58l2 -137 q0 -35 2 -51q-2 -20 0 -60q2 -12 58.5 -17t64.5 -11q63 -14 80 -23q41 -23 41 -67q0 -88 -135 -88h-176q-84 0 -127 16q-8 2 -8 6z" />
<glyph unicode="\" d="M170 1335q0 35 27.5 59.5t64.5 24.5q57 0 98 -84q6 -10 29 -61q20 -41 62 -125q84 -174 258 -522q25 -61 79 -170q25 -45 70 -135q41 -78 68 -138q37 -72 108 -215q25 -55 25 -75q0 -35 -29 -61t-65 -26q-49 0 -86 66q-29 59 -78 152q-20 33 -58 116q-29 53 -84 162 q-31 72 -90 191l-77 159l-162 330q-74 154 -113 238q-18 43 -18 61q0 2 -14.5 24.5t-14.5 28.5z" />
<glyph unicode="]" d="M287 -180q0 55 53 74q27 10 100 14q14 0 55.5 16.5t41.5 24.5v123v65q2 43 2 64q0 205 -2 555q0 37 2 108q-2 229 -3 232.5t-18.5 7.5t-17.5 8t-31 10q-20 2 -39 6q-45 12 -90 25q-49 23 -49 70q0 88 131 88h76q51 -2 75 -2q113 0 150 -11q14 -4 14 -8v-160 q-2 -109 -2 -161q0 -82 2 -248v-250l-2 -494q0 -76 -4 -112q2 -43 -8 -127q-2 -8 -6 -8h-154h-71q-49 -2 -72 -2q-133 0 -133 92z" />
<glyph unicode="^" d="M223 784q0 27 39 76q86 102 254 309q90 115 98 115q2 0 76 -82q39 -43 162 -194q133 -164 143.5 -185t10.5 -41q0 -35 -25 -59.5t-59 -24.5q-43 0 -109 76l-199 230q-12 -6 -102 -118t-111 -128q-47 -59 -94 -60q-35 0 -59.5 26t-24.5 60z" />
<glyph unicode="_" d="M-86 -410q0 102 135 103h1131q135 -1 135 -103t-135 -102h-1131q-135 0 -135 102z" />
<glyph unicode="`" d="M299 1264q0 33 22.5 55t53.5 22q20 0 63 -28q47 -39 140 -121q37 -31 106 -92q41 -37 41 -66q0 -63 -66 -63q-18 0 -60 32.5t-116 86.5q-25 12 -137 104q-47 39 -47 70z" />
<glyph unicode="a" d="M139 158q0 152 148 245q121 78 288 93q77 6 153 6h38v8v35q-6 98 -158 98q-102 0 -221 -43q-60 -22 -79 -22h-1q-41 0 -66.5 26.5t-25.5 67.5q0 61 61 86q158 67 321 67h5q274 0 340 -180q10 -27 16 -86q8 -86 11 -385l8 -6q0 -6 27 -23q14 -10 45 -26q27 -8 53 -20.5 t26 -41.5q0 -80 -84 -102q-37 -10 -147 -10q-84 0 -109 6l-4 37q-156 -84 -315 -84q-125 0 -221 61q-109 74 -109 193zM344 168q0 -41 55 -62q41 -16 90 -16q139 0 289 119v24v74q-131 35 -182 35q-76 0 -158 -49q-94 -53 -94 -125z" />
<glyph unicode="b" d="M33 1266q0 47 57 80q47 28 97 28h3q176 0 197 -6q-6 -195 -6 -219v-211q47 14 100 14q6 0 18.5 -2t18.5 -2q8 0 43 11.5t107 11.5q109 0 194 -41q273 -127 273 -430q0 -201 -135.5 -323t-337.5 -122q-133 0 -275 90l-4 -61q-10 -2 -160 -2q-74 0 -73 4l4 6q-10 8 -29 29 q-70 25 -70 102q0 104 135 125v506q0 283 -4 293q-4 18 -82 51q-25 12 -48 24.5t-23 43.5zM383 514q0 -125 79 -203t204 -78q117 0 195.5 77t78.5 194q0 129 -84 202.5t-215 73.5q-113 0 -185.5 -76.5t-72.5 -189.5z" />
<glyph unicode="c" d="M290 716q138 130 347 130q143 0 248 -49q34 26 68 26h3q47 0 79 -33.5t32 -82.5q0 -88 -2 -129q-8 -115 -92 -115q-63 0 -115 53q-82 84 -106 98q-82 53 -222 54q-125 0 -204.5 -78t-79.5 -203q0 -49 12 -92q27 -90 129 -141q88 -43 193 -43q283 0 364 61q53 39 76 39 q35 0 59.5 -24.5t24.5 -59.5q0 -80 -132 -138.5t-298 -58.5q-229 0 -369 107q-153 118 -153 337q0 212 138 342z" />
<glyph unicode="d" d="M139 313q0 176 119 310q133 147 363 147q125 0 223 -70l2 5v51q-2 27 -15 88q-12 53 -12 86q0 78 10 92q-63 10 -79 18q-37 18 -37 68q0 33 19.5 62.5t49.5 29.5q14 0 23 -4h8q8 0 18 -10l9 -2q37 0 116 -33q25 -500 54 -1012q8 -6 20 -20q8 -6 113 -45q80 -29 80 -68 q0 -78 -113 -88q-55 -4 -115 -4q-39 0 -51 3t-22 3q-8 0 -24.5 -4t-25.5 -4q-2 0 -9 23.5t-11 27.5q-125 -96 -274 -96q-184 0 -311.5 131t-127.5 315zM311 324q0 -119 78 -195t197 -76q123 0 201.5 79t78.5 204q0 113 -72.5 182.5t-187.5 69.5q-125 0 -207 -70 q-88 -72 -88 -194z" />
<glyph unicode="e" d="M145 543q0 186 137.5 315t323.5 129q178 0 314 -98q137 -100 137 -247q0 -17 -2 -34q2 -4 2 -16q0 -55 -10 -60q-61 -4 -150 -10l-369 -24q-61 -4 -145 -17q-20 -2 -43 -8q4 -14 20 -41q72 -117 269 -117q98 0 217 33q145 39 149 39q33 0 54.5 -23.5t21.5 -54.5 q0 -27 -24 -57q-57 -66 -207 -105q-119 -30 -231 -30h-7q-188 0 -322.5 118.5t-134.5 307.5zM342 641q61 -2 55 -2q55 0 240 14q195 15 211 21q-4 16 -23 45q-68 98 -219 98q-90 0 -166 -43q-84 -49 -98 -133z" />
<glyph unicode="f" d="M217 721q0 70 80 86q63 6 125 14l2 74q0 147 108.5 241.5t258.5 94.5q317 0 317 -123q0 -41 -24.5 -69.5t-65.5 -28.5t-124 18.5t-126 18.5q-143 0 -150 -99q-4 -8 -4 -47v-41l31 -6q16 -2 49 -10q25 -10 96.5 -17.5t83.5 -13.5q125 -20 125 -92q0 -51 -41 -70 q-23 -10 -86 -18q-104 -6 -256 -29v-264q0 -193 3.5 -196t15.5 -5q74 -4 221 -18q129 -18 129 -96q0 -86 -115 -86h-473q-119 0 -153 26q-25 20 -25 70q0 100 111 112q8 6 96 13l-2 262q0 195 2 188q-2 6 -28.5 15.5t-35.5 9.5q-4 0 -12 -2h-12q-121 0 -121 88z" />
<glyph unicode="g" d="M78 530q0 205 138 342.5t341 137.5q186 0 311 -117l4 72l238 -13q131 -6 131 -100q0 -72 -57 -94q-26 -9 -79 -9q-17 0 -38 1l-39 -730q-8 -158 -118.5 -258t-268.5 -100q-16 0 -252 12q-129 6 -129 103q0 102 123 102q41 0 127 -6t127 -6q80 0 131 43t55 121l6 112 q-131 -86 -266 -86q-203 0 -344 135.5t-141 337.5zM283 535q0 -115 85 -194t201 -79q115 0 198 79t83 194q0 113 -85 191.5t-200 78.5t-198.5 -78t-83.5 -192z" />
<glyph unicode="h" d="M55 1075q0 125 228 125q113 0 120 -8q2 -133 15 -465q31 25 62.5 35t64.5 20q80 27 133 27q309 0 338 -324q2 -16 6 -157l8 -199q0 -6 17 -20q10 -12 38 -33q27 -8 53.5 -18.5t26.5 -41.5q0 -84 -112 -86h-131q-16 0 -49 -3t-50 -3q-49 0 -76.5 39t-27.5 90q0 84 119 107 q-6 150 -17 321q-6 147 -155 148q-84 0 -136 -45q-37 -31 -88 -117q-16 -29 -16 -33q0 -2 10 -213q0 -41 6 -117q0 -6 14.5 -18t43.5 -31q25 -8 50 -18t25 -37q0 -92 -217 -92q-10 0 -28.5 3t-26.5 3q-25 0 -72 2q-31 4 -68.5 32.5t-37.5 57.5q0 68 58.5 106t58.5 40 q0 143 -15 409q-12 285 -14 412q-6 4 -16 12q-2 2 -25 6q-59 14 -76 25q-41 20 -41 59z" />
<glyph unicode="i" d="M199 47q0 2 5 8t5 8q0 100 110 113l199 23q-1 44 -1 105q0 122 3 314q-6 6 -76 15q-18 4 -57 12q-29 6 -62.5 33t-33.5 53q0 35 25.5 65.5t58.5 30.5q10 0 22 -4q4 2 23 -8q123 -4 291 -14v-68v-213q-2 -141 -2 -213q0 -106 2 -111.5t57 -16.5t63 -19q33 -6 87 -21 q74 -25 75 -26q37 -21 37 -66q0 -92 -143 -92q-451 0 -582 10q-106 8 -106 82zM461 1165q47 16 209 17q4 0 10 -43q12 -99 12 -148q-59 -20 -211 -20q-20 76 -20 194z" />
<glyph unicode="j" d="M309 664q0 33 15.5 73.5t40 59t251.5 18.5q25 0 71 3t65 3l191 6h-1q6 -8 6 -110q0 -37 -4 -111t-4 -110v-101q2 -68 2 -100v-307q0 -143 -84 -246q-90 -109 -231 -115l-166 -6q-8 -4 -23 -22q-108 25 -108 74q0 19 22.5 41t40.5 22q10 0 29 -33q14 -12 84 -12 q84 0 110 8q82 31 111 94q23 49 23 148l-2 571q-8 6 -22.5 46t-22 43t-83 11.5t-92.5 8.5q-29 0 -84 -10.5t-82 -10.5q-53 0 -53 64zM614 1161q25 18 213 19q19 -25 19 -191q-6 -6 -98 -12q-84 -8 -113 -8q-4 31 -14 88q-6 27 -7 104z" />
<glyph unicode="k" d="M102 43q0 37 35 72t72 35h16q0 8 14.5 10t14.5 4l2 43v280l2 519q0 -8 -18 14q-41 23 -82 47q-51 31 -52 70q0 63 66 80q57 6 113 12q63 4 139 14l33 4q4 -14 4 -67q0 -29 -6 -85.5t-6 -84.5v-430h4q6 0 33.5 17t39.5 17q4 0 24.5 13.5t27.5 15.5q-27 27 -27 53 q0 20 18 39q41 39 97 45q94 8 102 10.5t47 2.5q-4 0 76 8q10 2 33.5 8t38.5 6q27 0 59.5 -24.5t32.5 -51.5q0 -61 -58 -80q-25 -8 -106 -8q-29 -27 -92 -73q-18 -12 -84 -64q-72 -55 -72 -61q0 2 98 -95q31 -25 84 -82q39 -37 117 -110q29 -10 76 -27q37 -12 76 -26 q39 -23 39 -66q0 -90 -181 -90q-51 0 -72.5 4t-50.5 14q-78 16 -106 33q-59 29 -59 84q0 35 16 62q-33 27 -92 82q-10 12 -105 94q-6 -2 -32 -33v-47q-2 -31 -2 -47v-105q0 -23 7 -68.5t7 -68.5q-16 -4 -49 -4q-18 0 -54 2t-55 2h-31q-18 -2 -28 -2q-143 0 -144 84z" />
<glyph unicode="l" d="M209 166q0 41 26.5 80t65.5 39h18v4l27 6q31 4 70 16q4 2 80 15q25 4 24 6q0 764 -20 790l-43 6q-45 6 -92 11q-82 12 -82 80q0 49 37.5 78.5t89.5 29.5q27 0 223 -22q31 0 80 -11q0 -98 -2 -296.5t-2 -299.5q0 -72 2 -213v-215q29 -4 71 -14q25 -14 100.5 -23t104.5 -24 q51 -23 51 -80q0 -90 -161 -90h-68q-43 2 -66 2h-157q-10 4 -35 8q-37 2 -92 10q-20 8 -68 11q-59 2 -74 6q-31 6 -69.5 33.5t-38.5 56.5z" />
<glyph unicode="m" d="M-29 47q0 90 107 94q4 4 8 480q-111 33 -111 102q0 51 54 80q41 26 94 26h4q27 0 78 -6t76 -8q2 -10 8 -31q0 -2 2 -2l35 25q66 41 139 41q100 0 178 -80q8 -6 23 -23q68 59 96 76q51 29 121 29q111 0 187.5 -74t76.5 -184v-94q-2 -63 -2 -97q0 -37 2 -120v-123 q119 -41 119 -113q0 -88 -116 -88h-5q-6 -2 -19 -2q-18 0 -52 3t-52 3q-12 0 -39 -2h-39q-8 25 -8 57q0 68 8 99q4 14 4 153q0 14 4 43q-2 -6 -2 138q0 14 2 45.5t2 46.5q0 61 -12 88q-20 39 -74 39q-80 0 -145 -82q-12 -18 -12 -383q63 0 81.5 -32t18.5 -99q0 -27 -12 -58 q-25 -55 -101 -55h-80q-55 2 -81 2l-9 31q-4 4 -13 51t-9 57q0 25 5 46.5t5 308.5v57q2 37 2 55q0 33 -11 43.5t-46 16.5q-61 10 -53 10q-45 0 -103 -45q-6 -4 -12 -51q-14 -104 -17 -346q100 -10 101 -99q0 -43 -26.5 -84t-67.5 -45l-50 -4q-6 -4 -90 -4q-172 0 -172 88z " />
<glyph unicode="n" d="M88 129q0 35 53 57q68 29 80 47q2 203 4 457q-119 37 -119 109q0 76 115 88q10 6 94 10t95 8l4 -16q0 -25 4 -62q0 -6 2 -8q123 111 256 111q295 0 332 -279q4 -27 4 -129q0 -283 14 -305q107 -2 107 -88q0 -68 -74 -84q-18 -4 -123 -4h-43q-27 -2 -41 -2q-145 0 -145 90 q0 41 35.5 74t76.5 35v145q0 31 2 80v82q0 145 -90 186q-39 18 -80 19q-127 0 -233 -136l2 -57q0 -37 -2 -108.5t-2 -104.5v-43q2 -29 2 -43q2 -4 10 -14.5t64 -36.5q45 -23 45 -51q0 -84 -64 -109q-12 -6 -55 -6h-49q-35 -2 -52 -2q-100 0 -139 10q-90 18 -90 80z" />
<glyph unicode="o" d="M119 469q0 205 149 336q143 123 353 123q201 0 342 -123q147 -131 147 -328t-145.5 -331t-343.5 -134q-203 0 -349 125q-154 133 -153 332zM311 479q0 -84 47.5 -153.5t122 -101t131.5 -31.5q123 0 213 79.5t90 200.5q0 72 -47 143q-84 131 -264 132q-117 0 -205 -78 t-88 -191z" />
<glyph unicode="p" d="M121 -416q0 74 94 74l35 25v122v641q-127 16 -127 86q0 68 106.5 84.5t186.5 16.5q4 0 4 -29q0 -8 -2 -24.5t-2 -24.5l2 -2q109 90 235 90q174 0 284 -108.5t110 -280.5q0 -158 -121 -258q-113 -96 -273 -96q-47 0 -124.5 19.5t-114.5 43.5q2 -20 2 -285q59 -8 116 -16 q78 -14 78 -78q0 -76 -121 -76h-268q-100 0 -100 76zM467 287q0 -121 88 -193q55 -41 150 -41q92 0 161.5 57.5t69.5 149.5q0 98 -69.5 160.5t-172.5 62.5q-94 0 -157 -51q-70 -53 -70 -145z" />
<glyph unicode="q" d="M106 473q0 117 63.5 220.5t166.5 154.5q18 8 43 8q10 0 33.5 -3t36.5 -3q16 0 28 4q20 6 60 39q31 29 65 29q143 0 277 -111l2 72q45 -6 96 -19q4 -14 98 -22q111 -49 111 -117q0 -57 -45 -78q-27 -14 -92 -18l2 -160q0 -47 -2 -142.5t-2 -142.5l2 -397l26 -8 q37 -25 76 -49q47 -33 47 -68q0 -88 -115 -88q-18 -8 -172 -8q-145 0 -161 8h-5q-116 0 -116 88q0 33 49 89t82 59l96 2q-2 70 -4 206q0 37 -4 111q-139 -94 -285 -94q-188 0 -322.5 125t-134.5 313zM299 453q0 -35 8 -66q18 -68 90 -119t142 -51q25 0 57 14q45 18 55 21 q78 20 115 45q49 33 76 98q14 39 14 82q0 113 -73.5 174.5t-190.5 61.5q-119 0 -203 -70q-90 -74 -90 -190z" />
<glyph unicode="r" d="M166 129q0 57 102 94q6 4 21 8l94 7v81q2 51 2 80v162q0 125 -1 128t-97 32q-86 27 -86 82q0 70 88 90q39 8 143 8q49 0 64 6l71 2q2 -51 6 -116q111 76 142 92q84 45 162 45q74 0 147 -43q84 -51 84 -121q0 -39 -28.5 -70.5t-67.5 -31.5q-37 0 -80 39.5t-72 39.5 q-74 0 -287 -208v-261q8 -2 95 -10q20 -4 59 -10q98 -8 119 -14q66 -20 65 -84q0 -74 -23.5 -95.5t-94.5 -21.5h-136q-90 2 -135 2q-33 0 -98 -2h-100q-158 0 -158 90z" />
<glyph unicode="s" d="M184 184q0 154 86 154q72 0 92 -80q88 -100 254 -100q61 0 166 37q123 43 123 90q0 70 -172 96q-287 43 -323 55q-172 55 -172 195q0 180 215 239q76 20 202 21q117 0 224 -60q23 16 45 17q81 0 81 -98q0 -11 -1 -23q2 -4 2 -10q0 -12 -5 -43q-8 -57 -18 -78 q-20 -33 -68 -33q-55 0 -96 82q-84 72 -194 72q-53 0 -105 -12q-74 -20 -74 -58q0 -49 152 -84q211 -49 281 -84q149 -75 149 -225q0 -104 -81 -177t-189 -89q-37 0 -109 -4q-10 -2 -36.5 -6.5t-43.5 -4.5q-143 0 -252 66q-25 -18 -49 -16h-4v6v2q-55 20 -71 59q-8 25 -9 94 z" />
<glyph unicode="t" d="M94 719q0 90 94 92h31q6 0 34 13.5t32 19.5q0 43 8 106q4 74 14 103q20 59 76 59q90 0 90 -98v-15q-2 -8 -2 -14q0 -145 10 -164q219 12 310 13q122 0 122 -92q0 -52 -41 -72q-23 -12 -84 -21q-41 -2 -116 -12q-20 -6 -88 -14q-10 -2 -37 -6.5t-64 -10.5q2 -170 11 -356 q2 -80 30 -137q39 -76 109 -76q57 0 169.5 88t153.5 88q37 0 62.5 -25.5t25.5 -62.5q0 -51 -73 -98q-143 -92 -326 -95h-20h-9q-111 0 -186 45q-92 57 -96 170h-2q-29 0 -29 54q0 4 2 10v8q0 74 -6 203q-8 147 -8 203q-61 6 -123 14q-74 16 -74 80z" />
<glyph unicode="u" d="M78 737q0 88 98 88q6 0 16.5 -2t16.5 -2l201 2q4 0 8 -26q8 -47 8 -82v-43q-2 -29 -2 -43v-363q0 -149 156 -149h2q80 0 139 41q41 29 100 102q0 63 2 166v164q0 4 -18.5 10t-18.5 8t-61 27q-78 31 -78 106q0 82 98 82h31q20 -2 31 -2h39.5h40.5q115 0 127 -10v-633 q41 -8 75.5 -42t34.5 -73q0 -80 -133 -96q-37 -14 -170 -14q-4 0 -4 20q0 31 -4 72q-123 -111 -246 -111q-182 0 -280 136q-55 76 -56 256q0 47 2 141v139q0 14 -36 41l-19 -2q-41 0 -70.5 25.5t-29.5 66.5z" />
<glyph unicode="v" d="M70 664q0 76 96 94q39 4 108 20q39 18 115 19q137 0 137 -90q0 -82 -116 -97l219 -409q23 41 96 200q80 170 80 181q0 14 -6 34q-10 33 -68 52q-49 14 -49 55q0 72 113 84q121 12 237 12q127 0 127 -90q0 -84 -149 -113q-25 -61 -281 -649q-8 -4 -88 -19.5t-96 -15.5 q-39 49 -121 220q-57 123 -127 241q-55 94 -80 152q-147 16 -147 119z" />
<glyph unicode="w" d="M106 788q0 43 33 43q39 0 118 -31.5t118 -31.5q8 0 20.5 2t18.5 2q55 0 55 -43q0 -33 -51 -33q-16 0 -66 6l19 -77l30 22q-27 -57 -26 -117q0 -92 43 -227q23 63 61 139q43 53 107 172q37 0 110 4q6 -25 25 -75q33 -82 100 -246q14 39 41 125q16 53 68 190 q-111 6 -111 19q0 80 12 94q4 6 39 27q50 32 173 32h8h4q129 0 129 -71q0 -66 -92 -80l-148 -545q-12 -45 -41 -133q-57 2 -137 22q-16 29 -41 102t-111 212l-22 -12q-8 -14 -49 -123l-72 -189q-76 -10 -137 -10q-16 31 -51 168q-18 74 -64 213q-49 113 -49 186q0 6 3 17.5 t3 17.5q0 23 -2 65t-2 62t8 55q-74 4 -74 47z" />
<glyph unicode="x" d="M90 150q0 84 98 96q31 25 155 139.5t124 120.5t-49 49q-55 49 -62 55q-41 33 -118 109q-39 12 -74 45q-41 37 -41 74q0 86 112 86h5q10 4 41 4q35 0 139 -4q127 -4 127 -86q0 -51 -47 -88q41 -33 100 -95l14 -10q12 6 66.5 55.5t58.5 57.5q-45 33 -45 78q0 59 51 77 q29 12 101 13h45h43q168 0 168 -90q0 -78 -98 -88q-242 -203 -256 -230q96 -92 208 -196q27 -20 76 -68q107 -20 107 -104q0 -90 -138 -91q-29 0 -88 2h-88q-147 0 -147 91q0 63 74 96q-4 10 -70 70.5t-76 62.5q-70 -57 -143 -133q70 -39 69 -98q0 -90 -131 -91q-33 0 -94 2 t-94 2q-123 0 -123 87z" />
<glyph unicode="y" d="M88 -172q0 53 41 74q16 10 84 22q84 6 182 25l25 51q39 72 78 160q0 18 -46 118.5t-46 112.5t-93 197q-55 111 -108 223q-84 12 -84 96q0 90 90 117q16 4 41 12l16 4q8 8 105 9q141 0 141 -93q0 -41 -30.5 -67.5t-73.5 -28.5q0 -8 41 -94q45 -92 50 -107.5t60 -124 t60 -110.5q27 33 59 108q55 98 158 302q-100 2 -101 96q0 16 6 41q14 51 50 65q23 12 81 13q90 0 136 -2q131 -3 131 -89q0 -78 -97 -102q-61 -117 -106 -215q-35 -66 -100 -201q-29 -59 -88 -176q-16 -33 -48 -102q-20 -51 -86 -168q102 -14 103 -98q0 -84 -113 -105 q-14 -8 -119.5 -19.5t-128.5 -21.5q-31 -16 -133 -16q-12 0 -20 4q-8 -2 -17 -2q-100 0 -100 92z" />
<glyph unicode="z" d="M207 16l22 27q2 8 375 389q35 35 74 80q-39 2 -90 16q-61 8 -133 25v-12q2 -106 -84 -107q-43 0 -72 23q-20 16 -35 73q-18 70 -26 82q-2 4 -5 9q-4 12 -4 92v10q16 2 52 8q27 8 116 8h228h43q31 -2 45 -2h282q10 -33 11 -139q-4 -6 -21 -25q-98 -104 -463 -487 q53 -6 111 -16q94 -12 178 -13q8 88 90 88q41 0 80 -16q49 -23 49 -57v-170q-45 -6 -94 -15q-6 -10 -406 -10h-294q-2 14 -7 41q-4 8 -8 30.5t-14 67.5z" />
<glyph unicode="{" d="M342 492q0 88 100 102q41 6 53.5 21.5t12.5 56.5v336q0 109 78 188.5t186 79.5q115 0 115 -102q0 -94 -101 -105q-43 -4 -58 -18.5t-15 -57.5v-321q0 -109 -60 -180q39 -47 52 -95q8 -33 8 -106v-322q0 -43 15 -57t58 -18q101 -11 101 -105q0 -102 -115 -102 q-106 0 -185 79.5t-79 188.5v354q0 41 -11.5 56.5t-54.5 21.5q-100 14 -100 105z" />
<glyph unicode="|" d="M512 -182v1325q0 131 102 131q103 0 103 -135v-1321q0 -131 -103 -131q-102 0 -102 131z" />
<glyph unicode="}" d="M342 -211q0 94 100 105q43 4 58.5 18t15.5 57v322q0 109 59 180q-39 47 -51 94q-8 33 -8 107v321q0 43 -15.5 57.5t-58.5 18.5q-100 10 -100 105q0 102 115 102q106 0 185 -80t79 -188v-355q0 -41 11 -56t54 -22q101 -14 101 -104q0 -88 -101 -102q-41 -6 -53 -21.5 t-12 -56.5v-336q0 -109 -78 -188.5t-186 -79.5q-115 0 -115 102z" />
<glyph unicode="~" d="M178 588q0 47 70 125q63 72 110.5 96.5t96.5 24.5q70 0 192.5 -90.5t136.5 -90.5q29 0 83.5 70t97.5 70q37 0 61.5 -24.5t24.5 -61.5q0 -39 -78 -134q-92 -113 -191 -112q-90 0 -207.5 91t-134.5 91q-27 0 -82 -70.5t-94 -70.5q-33 0 -59.5 25.5t-26.5 60.5z" />
<glyph unicode="&#xa0;" />
<glyph unicode="&#xa1;" d="M461 -301q2 8 2 10q0 10 4 74q8 82 25 246q4 53 10 92q6 113 33 293q23 59 77 59q74 0 95 -135q6 -51 10 -107q14 -104 33 -311q2 -31 11 -105.5t9 -113.5q0 -197 -162 -197q-72 0 -110.5 51.5t-36.5 125.5v6v12zM471 733q0 74 61 109q37 20 60 20q6 0 12 -2q25 4 41 -8 q113 -25 113 -123q0 -53 -35 -92t-88 -33q-2 -2 -6 -2q-25 0 -33 6q-125 14 -125 125z" />
<glyph unicode="&#xa2;" d="M170 639q0 152 98 270q96 113 246 150v158q0 137 102 137t103 -137v-138q90 -14 149 -49q23 8 41 8q104 0 105 -135q0 -117 -6 -141q-18 -80 -97 -80q-66 0 -84 48t-34 95q-35 49 -140 49q-113 0 -192 -63q-86 -68 -86 -176q0 -102 77.5 -167t182.5 -65q86 0 173 49.5 t112 49.5q41 0 71.5 -32t30.5 -73q0 -80 -117 -137q-82 -39 -186 -57v-158q0 -135 -103 -135q-102 0 -102 135v166q-156 39 -250 153.5t-94 274.5z" />
<glyph unicode="&#xa3;" d="M70 580q0 76 80 96q20 4 139 10q-47 111 -47 201q0 147 101 242.5t249 95.5q102 0 203 -49q121 -59 120 -150q0 -43 -29.5 -73.5t-70.5 -30.5q-35 0 -92 49t-121 49q-61 0 -106 -31q-49 -37 -50 -94q0 -63 54 -197q150 6 157 7q123 0 123 -103q0 -74 -82 -94 q-20 -6 -141 -12q4 -72 4 -101q0 -96 -37 -194l418 22q8 98 102 99q105 0 105 -121q0 -172 -213 -185l-672 -34q-125 -2 -125 106q0 57 56 82q88 37 104 51q55 51 55 180q0 25 -4 84q-152 -8 -160 -8q-121 0 -120 103z" />
<glyph unicode="&#xa5;" d="M43 1085q0 102 113 103h233q115 0 115 -103q0 -82 -80 -98l192 -274l195 272q-84 23 -84 100q0 102 115 103h231q113 -1 113 -103t-133 -102l-285 -408h147q63 0 64 -57q0 -57 -64 -57h-198v-70h198q63 0 64 -57q0 -57 -64 -58h-198v-71q129 0 147 -4q84 -16 84 -99 q0 -102 -135 -102h-397q-135 0 -135 102q0 80 86 99q18 4 145 4v71h-199q-63 0 -63 58q0 57 63 57h199v70h-199q-63 0 -63 57t63 57h148l-283 410h-8q-127 -2 -127 100z" />
<glyph unicode="&#xa8;" d="M305 1139q0 47 33 80.5t80 33.5q49 0 81.5 -34.5t32.5 -83.5q0 -45 -31.5 -79t-76.5 -34q-51 0 -85 34t-34 83zM692 1139q0 49 34 81.5t81 32.5t82 -34.5t35 -79.5q0 -47 -35 -83t-80 -36q-49 0 -83 35t-34 84z" />
<glyph unicode="&#xa9;" d="M-14 598q0 260 183 443.5t443 183.5t444.5 -183.5t184.5 -443.5t-184.5 -444.5t-444.5 -184.5t-443 184.5t-183 444.5zM135 598q0 -199 140.5 -339t338.5 -140q197 0 337.5 141t140.5 338q0 199 -139.5 338t-338.5 139t-339 -139t-140 -338zM311 539q0 16 2 34 q-2 8 -2 17q0 8 23 82q4 20 14 59q25 82 99.5 133t160.5 51q78 0 174 -51q16 12 39 13q43 -1 43 -62q0 -18 -10 -90v4l-4 -2q-8 -35 -41 -35q-35 0 -77 61.5t-124 61.5q-80 0 -131 -54t-57 -136q-2 -57 -2 -74q0 -92 61.5 -140.5t155.5 -48.5q41 0 67.5 7.5t62.5 40t48 32.5 q41 0 41 -47q0 -31 -37 -67q-59 -59 -180 -60q-199 0 -287 154q-39 66 -39 117z" />
<glyph unicode="&#xaa;" d="M242 756q0 121 123 188q102 53 233 53q53 0 127 -10v17q0 55 -119 55q-66 0 -162 -23q-43 -10 -55 -10q-35 0 -57.5 23.5t-22.5 58.5q0 63 119 92q76 18 168 19q289 0 289 -215v-263q116 1 116 -79t-102 -80h-174v22q-113 -45 -221 -45q-96 0 -174 49q-88 57 -88 148z M254 465q0 66 88 65h541q106 1 106 -77q0 -80 -104 -80h-525q-66 0 -86 15t-20 77zM428 766q0 -45 88 -45q113 0 209 63v56q-88 14 -133 14q-51 0 -100 -20q-63 -25 -64 -68z" />
<glyph unicode="&#xab;" d="M76 -362q0 82 102 79l39 29v840q-139 18 -139 96q0 74 116.5 91.5t204.5 17.5q4 0 4 -33q0 -8 -2 -25.5t-2 -27.5v-3q121 100 263 101q190 0 311 -120t121 -310q0 -172 -133 -283q-125 -106 -302 -106q-51 0 -136 21.5t-126 47.5q2 -20 0 -313q66 -8 131 -16 q84 -16 84 -86q0 -84 -131 -84l-297 2q-109 0 -108 82z" />
<glyph unicode="&#xad;" d="M150 526q0 106 147 107q31 0 96 -2h99h305q25 0 70.5 2t68.5 2q143 0 143 -92q0 -104 -116 -103q-2 -2 -17 -2q-18 0 -59 2t-62 2q-31 -2 -250 -2h-143q-96 -2 -143 -2q-139 0 -139 88z" />
<glyph unicode="&#xae;" d="M-14 596q0 260 183 444.5t443 184.5t444.5 -184.5t184.5 -444.5t-184.5 -443.5t-444.5 -183.5t-443 183.5t-183 443.5zM135 598q0 -199 140.5 -339t338.5 -140q197 0 337.5 141t140.5 338q0 199 -139.5 338t-338.5 139q-197 0 -338 -140t-141 -337zM348 860q0 51 49 53 q201 6 219 7q92 0 154 -43q74 -49 74 -140q0 -86 -105 -153q59 -47 125 -166q25 -6 52.5 -16t27.5 -33t-19.5 -40.5t-43.5 -17.5h-11.5t-38 5.5t-34.5 7.5q-18 37 -62 106q-70 92 -102.5 99.5t-100.5 19.5q-4 -14 -4 -43v-82q10 -2 23 -8q43 -14 43 -17q20 -10 20 -37 q0 -39 -19.5 -49t-62.5 -12q-82 -2 -120 -2q-57 0 -58 41q0 25 39 44t39 22q0 72 -6 190q-6 143 -8 192q-23 12 -46.5 26.5t-23.5 45.5zM522 813q-2 -72 6 -170h72q51 0 92 23q49 26 49 71q0 41 -36.5 67.5t-77.5 26.5q-53 0 -105 -18z" />
<glyph unicode="&#xaf;" d="M289 1104q0 98 98 102h37l151 2l230 -4q6 0 15 2t16 2q104 0 104 -90q0 -47 -34 -73.5t-83 -26.5h-12h-240q-14 0 -45 2h-45q-92 0 -119 6q-74 16 -73 78z" />
<glyph unicode="&#xb0;" d="M367 971q0 104 71.5 177t175.5 73t176 -73t72 -177t-72.5 -178t-175.5 -74q-102 0 -174.5 73.5t-72.5 178.5zM492 971q0 -51 35.5 -89t86.5 -38t87 38t36 89t-35.5 88t-87.5 37q-51 0 -86.5 -37t-35.5 -88z" />
<glyph unicode="&#xb1;" d="M86 102q0 102 113 103h831q113 -1 113 -103t-135 -102h-787q-135 0 -135 102zM86 778q0 102 135 103h291v262q0 135 102 135t103 -135v-262h289q137 -1 137 -103t-137 -102h-289v-205q0 -135 -103 -135q-102 0 -102 135v205h-291q-135 0 -135 102z" />
<glyph unicode="&#xb4;" d="M504 1032q0 27 47 68q104 94 240 203q43 35 67 34q72 1 72 -69q0 -37 -37 -66q-27 -35 -244 -194q-51 -37 -82 -37q-63 0 -63 61z" />
<glyph unicode="&#xb6;" d="M117 752q0 14 6 108q8 160 180 254q145 80 322 80q20 0 41 -2l403 -21q107 -5 107 -79q0 -80 -109 -80q4 0 -76 4l-65 -1229q98 -6 112 -8q68 -16 68 -76q0 -80 -100 -80q-16 0 -205 10q-57 2 -78 74q-29 -66 -82 -65q-217 0 -319 18q-76 12 -76 76q0 80 100 80 q6 0 174 -9l31 576q-164 25 -287 113q-147 106 -147 256zM348 745q0 -143 211 -196l27 477q-223 -33 -232 -182q-6 -84 -6 -99zM680 -201q33 -18 45 -59q14 39 45 55l66 1229l-91 4z" />
<glyph unicode="&#xb7;" d="M479 573q0 51 34 86t85 35h31q51 0 86 -35t35 -86t-35 -85.5t-86 -34.5l-33 2q-49 0 -83 34.5t-34 83.5z" />
<glyph unicode="&#xb8;" d="M393 -254q0 27 19.5 46.5t46.5 19.5q10 0 63 -29t101 -29q63 0 63 35q0 31 -125 37q-10 10 -10 162q0 98 65 98q66 0 66 -63q2 -6 -2 -72q135 -43 135 -154q0 -76 -56.5 -125t-131.5 -49q-74 0 -144 27q-90 35 -90 96z" />
<glyph unicode="&#xba;" d="M250 453q0 78 88 77h539q106 1 106 -77q0 -80 -106 -80h-521q-106 0 -106 80zM268 881q0 141 103.5 239.5t244.5 98.5t245 -98.5t104 -239.5q0 -137 -104.5 -229.5t-244.5 -92.5q-139 0 -243.5 92t-104.5 230zM430 879q0 -68 62 -115q55 -45 124 -45q70 0 128.5 47 t58.5 115q0 74 -56.5 126t-130.5 52q-76 0 -131 -52.5t-55 -127.5z" />
<glyph unicode="&#xbb;" d="M106 432q0 117 63.5 220.5t166.5 154.5q18 8 43 8q10 0 33.5 -3t36.5 -3q16 0 28 4q20 6 60 39q31 29 65 29q143 0 277 -111l2 72q45 -6 96 -19q4 -14 98 -22q111 -49 111 -117q0 -57 -45 -78q-27 -14 -92 -18l2 -160q0 -47 -2 -142.5t-2 -142.5l2 -397l26 -8 q37 -25 76 -49q47 -33 47 -68q0 -88 -115 -88q-18 -8 -172 -8q-145 0 -161 8q-121 -2 -121 88q0 33 49 89.5t82 58.5l96 2q-2 70 -4 206q0 37 -4 111q-139 -94 -285 -94q-188 0 -322.5 125t-134.5 313z" />
<glyph unicode="&#xbf;" d="M199 -109q0 131 106 238q63 66 217 156q25 131 96 131q90 0 89 -115q2 -2 2 -10q0 -96 -11 -129q-152 -74 -225 -135q-63 -51 -63 -144q0 -53 16 -86q59 -117 184 -116q88 0 168 34q12 4 25 13q6 4 6 104q0 82 84 82q90 0 96 -117q6 -10 6 -143q-115 -78 -184 -109 q-100 -43 -207 -43q-176 0 -290.5 107.5t-114.5 281.5zM469 666q0 51 37 91t86 38l8 -2q23 4 37 -5q53 -6 87 -42t34 -87q0 -49 -34 -85.5t-83 -36.5q-39 0 -49 4q-123 10 -123 125z" />
<glyph unicode="&#xc0;" d="M-20 88q0 33 38 55q33 18 68 37q8 4 20 17q25 33 70 165q6 16 28.5 70.5t74.5 188.5q133 336 133 329q0 6 -19.5 12.5t-21.5 13.5t-20.5 15t-22.5 10q-57 35 -68 46q-31 29 -31 73q0 41 26 79t64 38q4 0 17.5 -2t18.5 -4t112.5 -17.5t118.5 -23.5q39 -4 86 -14l63 -11 q10 -29 31.5 -83t62.5 -154q74 -180 215 -541q25 -57 70 -174q135 -33 135 -125q0 -49 -53 -72q-41 -18 -96 -18h-8q-16 0 -52 2t-55 2q-23 0 -69 -2t-68 -2q-76 0 -96 86q-8 35 -9 45q0 61 41 84q23 12 95 20q-14 47 -43 119q-12 23 -271 23q-188 0 -198 -21 q-14 -43 -50 -121q72 -4 99 -16q45 -20 45 -78q0 -96 -62 -133q-12 -6 -108 -6q-25 0 -74 -2t-74 -2q-41 0 -47 4q-117 -2 -116 88zM299 1653q0 33 22.5 55t53.5 22q20 0 63 -28q47 -39 140 -121q37 -31 106 -92q41 -37 41 -66q0 -63 -66 -63q-18 0 -60 32.5t-116 86.5 q-25 12 -137 104q-47 39 -47 70zM457 571q0 -6 39 -10q102 -10 202 -10q18 0 41 4l13 2q0 16 -69 192.5t-77 182.5q-150 -336 -149 -361z" />
<glyph unicode="&#xc1;" d="M-20 88q0 33 38 55q33 18 68 37q8 4 20 17q25 33 70 165q6 16 28.5 70.5t74.5 188.5q133 336 133 329q0 6 -19.5 12.5t-21.5 13.5t-20.5 15t-22.5 10q-57 35 -68 46q-31 29 -31 73q0 41 26 79t64 38q4 0 17.5 -2t18.5 -4t112.5 -17.5t118.5 -23.5q39 -4 86 -14l63 -11 q10 -29 31.5 -83t62.5 -154q74 -180 215 -541q25 -57 70 -174q135 -33 135 -125q0 -49 -53 -72q-41 -18 -96 -18h-8q-16 0 -52 2t-55 2q-23 0 -69 -2t-68 -2q-76 0 -96 86q-8 35 -9 45q0 61 41 84q23 12 95 20q-14 47 -43 119q-12 23 -271 23q-188 0 -198 -21 q-14 -43 -50 -121q72 -4 99 -16q45 -20 45 -78q0 -96 -62 -133q-12 -6 -108 -6q-25 0 -74 -2t-74 -2q-41 0 -47 4q-117 -2 -116 88zM443 1483q0 27 47 68q104 94 240 203q43 35 67 34q72 1 72 -69q0 -37 -37 -66q-27 -35 -244 -194q-51 -37 -82 -37q-63 0 -63 61zM457 571 q0 -6 39 -10q102 -10 202 -10q18 0 41 4l13 2q0 16 -69 192.5t-77 182.5q-150 -336 -149 -361z" />
<glyph unicode="&#xc2;" d="M-20 88q0 33 38 55q33 18 68 37q8 4 20 17q25 33 70 165q6 16 28.5 70.5t74.5 188.5q133 336 133 329q0 6 -19.5 12.5t-21.5 13.5t-20.5 15t-22.5 10q-57 35 -68 46q-31 29 -31 73q0 41 26 79t64 38q4 0 17.5 -2t18.5 -4t112.5 -17.5t118.5 -23.5q39 -4 86 -14l63 -11 q10 -29 31.5 -83t62.5 -154q74 -180 215 -541q25 -57 70 -174q135 -33 135 -125q0 -49 -53 -72q-41 -18 -96 -18h-8q-16 0 -52 2t-55 2q-23 0 -69 -2t-68 -2q-76 0 -96 86q-8 35 -9 45q0 61 41 84q23 12 95 20q-14 47 -43 119q-12 23 -271 23q-188 0 -198 -21 q-14 -43 -50 -121q72 -4 99 -16q45 -20 45 -78q0 -96 -62 -133q-12 -6 -108 -6q-25 0 -74 -2t-74 -2q-41 0 -47 4q-117 -2 -116 88zM291 1458q0 35 43 72q68 53 198 162q4 4 41 31.5t39 27.5q16 0 62 -41q215 -178 219 -184q45 -37 45 -68q0 -59 -61 -59q-29 0 -132 80 q-66 53 -133 104q-2 0 -49 -36t-51 -40q-20 -23 -78 -63q-63 -45 -86 -45t-40 17.5t-17 41.5zM457 571q0 -6 39 -10q102 -10 202 -10q18 0 41 4l13 2q0 16 -69 192.5t-77 182.5q-150 -336 -149 -361z" />
<glyph unicode="&#xc3;" d="M-20 88q0 33 38 55q33 18 68 37q8 4 20 17q25 33 70 165q6 16 28.5 70.5t74.5 188.5q133 336 133 329q0 6 -19.5 12.5t-21.5 13.5t-20.5 15t-22.5 10q-57 35 -68 46q-31 29 -31 73q0 41 26 79t64 38q4 0 17.5 -2t18.5 -4t112.5 -17.5t118.5 -23.5q39 -4 86 -14l63 -11 q10 -29 31.5 -83t62.5 -154q74 -180 215 -541q25 -57 70 -174q135 -33 135 -125q0 -49 -53 -72q-41 -18 -96 -18h-8q-16 0 -52 2t-55 2q-23 0 -69 -2t-68 -2q-76 0 -96 86q-8 35 -9 45q0 61 41 84q23 12 95 20q-14 47 -43 119q-12 23 -271 23q-188 0 -198 -21 q-14 -43 -50 -121q72 -4 99 -16q45 -20 45 -78q0 -96 -62 -133q-12 -6 -108 -6q-25 0 -74 -2t-74 -2q-41 0 -47 4q-117 -2 -116 88zM266 1514q0 37 53 96q47 51 87 71.5t73 20.5q39 0 146.5 -80.5t130.5 -80.5q31 0 78 57t71 57q58 0 58 -61q0 -33 -52 -92q-84 -94 -166 -95 q-55 0 -156.5 80t-121.5 80q-27 0 -73 -56t-72 -56q-55 0 -56 59zM457 571q0 -6 39 -10q102 -10 202 -10q18 0 41 4l13 2q0 16 -69 192.5t-77 182.5q-150 -336 -149 -361z" />
<glyph unicode="&#xc4;" d="M-20 88q0 33 38 55q33 18 68 37q8 4 20 17q25 33 70 165q6 16 28.5 70.5t74.5 188.5q133 336 133 329q0 6 -19.5 12.5t-21.5 13.5t-20.5 15t-22.5 10q-57 35 -68 46q-31 29 -31 73q0 41 26 79t64 38q4 0 17.5 -2t18.5 -4t112.5 -17.5t118.5 -23.5q39 -4 86 -14l63 -11 q10 -29 31.5 -83t62.5 -154q74 -180 215 -541q25 -57 70 -174q135 -33 135 -125q0 -49 -53 -72q-41 -18 -96 -18h-8q-16 0 -52 2t-55 2q-23 0 -69 -2t-68 -2q-76 0 -96 86q-8 35 -9 45q0 61 41 84q23 12 95 20q-14 47 -43 119q-12 23 -271 23q-188 0 -198 -21 q-14 -43 -50 -121q72 -4 99 -16q45 -20 45 -78q0 -96 -62 -133q-12 -6 -108 -6q-25 0 -74 -2t-74 -2q-41 0 -47 4q-117 -2 -116 88zM305 1487q0 47 33 80.5t80 33.5q49 0 81.5 -34.5t32.5 -83.5q0 -45 -31.5 -79t-76.5 -34q-51 0 -85 34t-34 83zM457 571q0 -6 39 -10 q102 -10 202 -10q18 0 41 4l13 2q0 16 -69 192.5t-77 182.5q-150 -336 -149 -361zM692 1487q0 49 34 81.5t81 32.5t82 -34.5t35 -79.5q0 -47 -35 -83t-80 -36q-49 0 -83 35t-34 84z" />
<glyph unicode="&#xc5;" d="M-20 88q0 33 38 55q33 18 68 37q8 4 20 17q25 33 70 165q6 16 28.5 70.5t74.5 188.5q133 336 133 329q0 6 -19.5 12.5t-21.5 13.5t-20.5 15t-22.5 10q-57 35 -68 46q-31 29 -31 73q0 41 26 79t64 38q4 0 17.5 -2t18.5 -4t112.5 -17.5t118.5 -23.5q39 -4 86 -14l63 -11 q10 -29 31.5 -83t62.5 -154q74 -180 215 -541q25 -57 70 -174q135 -33 135 -125q0 -49 -53 -72q-41 -18 -96 -18h-8q-16 0 -52 2t-55 2q-23 0 -69 -2t-68 -2q-76 0 -96 86q-8 35 -9 45q0 61 41 84q23 12 95 20q-14 47 -43 119q-12 23 -271 23q-188 0 -198 -21 q-14 -43 -50 -121q72 -4 99 -16q45 -20 45 -78q0 -96 -62 -133q-12 -6 -108 -6q-25 0 -74 -2t-74 -2q-41 0 -47 4q-117 -2 -116 88zM291 1417q0 35 43 72q68 53 198 162q4 4 41 31.5t39 27.5q16 0 62 -41q215 -178 219 -184q45 -37 45 -68q0 -59 -61 -59q-29 0 -132 80 q-66 53 -133 104q-2 0 -49 -36t-51 -40q-20 -23 -78 -63q-63 -45 -86 -45t-40 17.5t-17 41.5zM457 571q0 -6 39 -10q102 -10 202 -10q18 0 41 4l13 2q0 16 -69 192.5t-77 182.5q-150 -336 -149 -361z" />
<glyph unicode="&#xc6;" d="M12 23q0 41 64 40q12 0 34.5 -2t32.5 -2q2 100 2 93v16v18l-6 13l4 -2v2q-2 39 0 104q2 76 2 105q0 20 50 108q6 14 16 40t31 77q12 55 53 158q4 8 20.5 52t16.5 50q0 2 -6 18q-14 39 -21 50q-14 18 -44 30.5t-30 24.5q0 41 48 69q39 23 77 43h4q45 0 68 15q84 12 203 33 q18 4 33 18v-4q29 2 69 14q25 4 60 4q43 0 127 2h129q20 0 56 -1t50 -3q8 -39 27 -39q-8 -8 -8 -18q0 -49 30 -51q-10 0 -10 -8q0 -10 4 -25q8 -20 8 -27q8 -4 8 -11t25 -36q0 -6 -6 -20.5t-6 -20.5v-10q2 -6 2 -10q0 -94 -51 -121q-8 -4 -13 -4q-53 0 -69 61q-4 14 -11 109 q-4 66 -10 69q-20 18 -250 19q-10 0 -20 -16.5t-10 -28.5q0 -8 6 -14q-6 0 -23.5 -45.5t-17.5 -57.5q0 -23 -2 -68t-2 -67q0 -10 22 -29q10 -8 43 -116q10 170 117 170q66 0 66 -89l4 -2q2 -47 2 -141q0 -135 -68 -135q-66 0 -72 94q-18 6 -30 12h2q-20 12 -37 13 q-12 0 -19 -15v-4h-2q-4 -16 -4 -37q0 -2 2 -5l2 -3q-2 -2 -10 -2q-6 -25 -10 -45l2 6q-8 -160 -8 -178q0 -23 61 -37q45 -8 88 -16q6 -8 33 -12q18 -4 37 -9v7l6 -9l51 -14q4 72 13 94q18 43 75 43q72 0 107 -39q4 -14 28 -32l3 -33l12 -15q-2 2 -4 2l-6 -2q4 -31 2 -135 q8 5 8 15q-14 -6 -68 -13q-45 -6 -65 -20q-2 0 -12.5 -1t-28 -9.5t-35.5 -8.5q-25 0 -71 3.5t-72 3.5q-35 0 -146 -3q-96 -2 -147 -2q-113 0 -148 58q-6 10 -6 12q0 57 105 76q16 25 16 147q0 23 -41 33q-23 4 -45 8q-10 10 -51 21.5t-60 11.5l-35 -55l11 8q-18 -20 -27 -66 q-8 -57 -14 -69q12 0 20 10l-4 -41q25 -2 25 -31q0 -86 -92 -102q-10 -6 -109.5 -23.5t-118.5 -17.5q-41 0 -41 25zM395 567q0 -29 119 -28h35q27 0 26 39q0 8 -12 8q8 0 19.5 34.5t11.5 47.5v100q0 37 2 101.5t2 95.5q0 2 -8 61q-43 -27 -92 -166q-102 -295 -103 -293z" />
<glyph unicode="&#xc7;" d="M59 498q0 23 2 45q-2 8 -2 22q0 20 23 164q20 135 53 211q63 143 205.5 231.5t300.5 88.5q160 0 307 -76q31 33 72 33q117 0 117 -156v-146q0 -84 -80 -84q-121 0 -170 117q-53 127 -244 127q-150 0 -257 -113.5t-112 -265.5q-2 -33 -2 -102v-72q0 -31 17 -88 q18 -70 45 -108q117 -168 336 -168q162 0 229 65q39 35 53 43q23 12 66 13q39 0 72.5 -24t33.5 -60q0 -29 -32 -60q-53 -49 -131 -96q-96 -59 -146 -59q-14 0 -22 4q0 -37 -11 -45q43 -45 43 -89q0 -14 -9 -38.5t-9 -32.5q0 -4 2 -14.5t2 -14.5q0 -66 -54.5 -113t-121.5 -47 q-74 0 -143 27q-90 35 -91 96q0 27 19.5 46.5t46.5 19.5q12 0 65.5 -29t98.5 -29q63 0 63 35q0 12 7.5 22.5t7.5 14.5q-31 39 -43.5 49.5t-26.5 35t-25 32.5q-27 18 -92 86h-4q-176 39 -313 178q-145 150 -146 324z" />
<glyph unicode="&#xc8;" d="M80 1061q0 78 106 84l-2 10q49 6 131 33l-6 -6q23 4 70 14q10 14 235 23q139 6 277 10q25 2 74 6q2 -23 16 -68q8 -18 13 -35.5t14 -48.5q4 -18 17 -58t13 -62q0 -88 -67 -89q-49 0 -64 60q-2 14 -6 100l-14 -4q-16 8 -52 9t-53 5q-39 14 -157 15q-201 0 -208 -4t-14 -82 q-8 -68 -8 -92q0 -37 4 -113q23 -6 70 -12q25 0 70 -2l2 -27l26 39q6 76 45 76l9 -2q43 -49 116 -113q2 -20 15 -59q4 -16 8 -29q10 -20 10 -104q0 -104 -78 -105q-33 0 -57 98q-43 -20 -70 -20q-29 0 -110 16q-6 -16 -9 -35q2 0 3 -2q0 -2 -5 -4q-4 -25 -4 -55q0 -8 -8 -10 q-8 -39 -8 -74q0 -16 4 -92q29 -2 74 -10q27 -10 67 -13q33 0 66 -2q18 -2 27.5 -6t89.5 -10q4 0 12 -4q31 -2 92 -12l-10 12q31 -2 35 8q10 27 12 29q16 18 24.5 60t20.5 58q20 25 74 25q51 0 69 -51q12 -29 17 -105q6 -68 16 -84q8 -27 8 -61q4 2 2 10q-20 -10 -90 -22 q-61 -10 -92 -29l6 4l-30 -8q-6 -14 -99 -18h-121q-16 -2 -237 -17q-143 -10 -238 -10q-121 0 -121 70q0 68 107 77q18 8 45 35q-2 68 -18 369q-4 123 -17 368q-14 10 -22 15q-14 12 -47 20q-70 18 -70 111zM299 1715q0 33 22.5 55t53.5 22q20 0 63 -28q47 -39 140 -121 q37 -31 106 -92q41 -37 41 -66q0 -63 -66 -63q-18 0 -60 32.5t-116 86.5q-25 12 -137 104q-47 39 -47 70z" />
<glyph unicode="&#xc9;" d="M80 1061q0 78 106 84l-2 10q49 6 131 33l-6 -6q23 4 70 14q10 14 235 23q139 6 277 10q25 2 74 6q2 -23 16 -68q8 -18 13 -35.5t14 -48.5q4 -18 17 -58t13 -62q0 -88 -67 -89q-49 0 -64 60q-2 14 -6 100l-14 -4q-16 8 -52 9t-53 5q-39 14 -157 15q-201 0 -208 -4t-14 -82 q-8 -68 -8 -92q0 -37 4 -113q23 -6 70 -12q25 0 70 -2l2 -27l26 39q6 76 45 76l9 -2q43 -49 116 -113q2 -20 15 -59q4 -16 8 -29q10 -20 10 -104q0 -104 -78 -105q-33 0 -57 98q-43 -20 -70 -20q-29 0 -110 16q-6 -16 -9 -35q2 0 3 -2q0 -2 -5 -4q-4 -25 -4 -55q0 -8 -8 -10 q-8 -39 -8 -74q0 -16 4 -92q29 -2 74 -10q27 -10 67 -13q33 0 66 -2q18 -2 27.5 -6t89.5 -10q4 0 12 -4q31 -2 92 -12l-10 12q31 -2 35 8q10 27 12 29q16 18 24.5 60t20.5 58q20 25 74 25q51 0 69 -51q12 -29 17 -105q6 -68 16 -84q8 -27 8 -61q4 2 2 10q-20 -10 -90 -22 q-61 -10 -92 -29l6 4l-30 -8q-6 -14 -99 -18h-121q-16 -2 -237 -17q-143 -10 -238 -10q-121 0 -121 70q0 68 107 77q18 8 45 35q-2 68 -18 369q-4 123 -17 368q-14 10 -22 15q-14 12 -47 20q-70 18 -70 111zM443 1421q0 27 47 68q104 94 240 203q43 35 67 34q72 1 72 -69 q0 -37 -37 -66q-27 -35 -244 -194q-51 -37 -82 -37q-63 0 -63 61z" />
<glyph unicode="&#xca;" d="M80 1061q0 78 106 84l-2 10q49 6 131 33l-6 -6q23 4 70 14q10 14 235 23q139 6 277 10q25 2 74 6q2 -23 16 -68q8 -18 13 -35.5t14 -48.5q4 -18 17 -58t13 -62q0 -88 -67 -89q-49 0 -64 60q-2 14 -6 100l-14 -4q-16 8 -52 9t-53 5q-39 14 -157 15q-201 0 -208 -4t-14 -82 q-8 -68 -8 -92q0 -37 4 -113q23 -6 70 -12q25 0 70 -2l2 -27l26 39q6 76 45 76l9 -2q43 -49 116 -113q2 -20 15 -59q4 -16 8 -29q10 -20 10 -104q0 -104 -78 -105q-33 0 -57 98q-43 -20 -70 -20q-29 0 -110 16q-6 -16 -9 -35q2 0 3 -2q0 -2 -5 -4q-4 -25 -4 -55q0 -8 -8 -10 q-8 -39 -8 -74q0 -16 4 -92q29 -2 74 -10q27 -10 67 -13q33 0 66 -2q18 -2 27.5 -6t89.5 -10q4 0 12 -4q31 -2 92 -12l-10 12q31 -2 35 8q10 27 12 29q16 18 24.5 60t20.5 58q20 25 74 25q51 0 69 -51q12 -29 17 -105q6 -68 16 -84q8 -27 8 -61q4 2 2 10q-20 -10 -90 -22 q-61 -10 -92 -29l6 4l-30 -8q-6 -14 -99 -18h-121q-16 -2 -237 -17q-143 -10 -238 -10q-121 0 -121 70q0 68 107 77q18 8 45 35q-2 68 -18 369q-4 123 -17 368q-14 10 -22 15q-14 12 -47 20q-70 18 -70 111zM291 1438q0 35 43 72q68 53 198 162q4 4 41 31.5t39 27.5 q16 0 62 -41q215 -178 219 -184q45 -37 45 -68q0 -59 -61 -59q-29 0 -132 80q-66 53 -133 104q-2 0 -49 -36t-51 -40q-20 -23 -78 -63q-63 -45 -86 -45t-40 17.5t-17 41.5z" />
<glyph unicode="&#xcb;" d="M80 1061q0 78 106 84l-2 10q49 6 131 33l-6 -6q23 4 70 14q10 14 235 23q139 6 277 10q25 2 74 6q2 -23 16 -68q8 -18 13 -35.5t14 -48.5q4 -18 17 -58t13 -62q0 -88 -67 -89q-49 0 -64 60q-2 14 -6 100l-14 -4q-16 8 -52 9t-53 5q-39 14 -157 15q-201 0 -208 -4t-14 -82 q-8 -68 -8 -92q0 -37 4 -113q23 -6 70 -12q25 0 70 -2l2 -27l26 39q6 76 45 76l9 -2q43 -49 116 -113q2 -20 15 -59q4 -16 8 -29q10 -20 10 -104q0 -104 -78 -105q-33 0 -57 98q-43 -20 -70 -20q-29 0 -110 16q-6 -16 -9 -35q2 0 3 -2q0 -2 -5 -4q-4 -25 -4 -55q0 -8 -8 -10 q-8 -39 -8 -74q0 -16 4 -92q29 -2 74 -10q27 -10 67 -13q33 0 66 -2q18 -2 27.5 -6t89.5 -10q4 0 12 -4q31 -2 92 -12l-10 12q31 -2 35 8q10 27 12 29q16 18 24.5 60t20.5 58q20 25 74 25q51 0 69 -51q12 -29 17 -105q6 -68 16 -84q8 -27 8 -61q4 2 2 10q-20 -10 -90 -22 q-61 -10 -92 -29l6 4l-30 -8q-6 -14 -99 -18h-121q-16 -2 -237 -17q-143 -10 -238 -10q-121 0 -121 70q0 68 107 77q18 8 45 35q-2 68 -18 369q-4 123 -17 368q-14 10 -22 15q-14 12 -47 20q-70 18 -70 111zM305 1508q0 47 33 80.5t80 33.5q49 0 81.5 -34.5t32.5 -83.5 q0 -45 -31.5 -79t-76.5 -34q-51 0 -85 34t-34 83zM692 1508q0 49 34 81.5t81 32.5t82 -34.5t35 -79.5q0 -47 -35 -83t-80 -36q-49 0 -83 35t-34 84z" />
<glyph unicode="&#xcc;" d="M221 1141q0 90 121 90q20 0 64 -2h63q63 0 191 2t192 2q80 0 107.5 -23.5t27.5 -105.5v-25q2 -14 2 -22q0 -53 -80 -109q-33 -20 -96 -20q-74 0 -98 -8q-2 -244 -2 -220v-8v-317q0 -143 3 -148.5t75.5 -15.5t80.5 -18q66 -10 91 -27q45 -25 45 -78q0 -90 -152 -90h-68 q-43 -2 -65 -2q-72 0 -119 6q-104 12 -145 33q-18 8 -53 12q-49 6 -56 8q-33 8 -67 35q-41 33 -41 62q0 90 108 90v2q23 8 120 10t108 8v148v295q-2 195 -3 292q0 14 -2 21q-2 14 -112 20q-117 8 -129 17q-111 16 -111 86zM299 1715q0 33 22.5 55t53.5 22q20 0 63 -28 q47 -39 140 -121q37 -31 106 -92q41 -37 41 -66q0 -63 -66 -63q-18 0 -60 32.5t-116 86.5q-25 12 -137 104q-47 39 -47 70z" />
<glyph unicode="&#xcd;" d="M221 1141q0 90 121 90q20 0 64 -2h63q63 0 191 2t192 2q80 0 107.5 -23.5t27.5 -105.5v-25q2 -14 2 -22q0 -53 -80 -109q-33 -20 -96 -20q-74 0 -98 -8q-2 -244 -2 -220v-8v-317q0 -143 3 -148.5t75.5 -15.5t80.5 -18q66 -10 91 -27q45 -25 45 -78q0 -90 -152 -90h-68 q-43 -2 -65 -2q-72 0 -119 6q-104 12 -145 33q-18 8 -53 12q-49 6 -56 8q-33 8 -67 35q-41 33 -41 62q0 90 108 90v2q23 8 120 10t108 8v148v295q-2 195 -3 292q0 14 -2 21q-2 14 -112 20q-117 8 -129 17q-111 16 -111 86zM484 1462q0 27 47 68q104 94 240 203q43 35 67 34 q72 1 72 -69q0 -37 -37 -66q-27 -35 -244 -194q-51 -37 -82 -37q-63 0 -63 61z" />
<glyph unicode="&#xce;" d="M221 1141q0 90 121 90q20 0 64 -2h63q63 0 191 2t192 2q80 0 107.5 -23.5t27.5 -105.5v-25q2 -14 2 -22q0 -53 -80 -109q-33 -20 -96 -20q-74 0 -98 -8q-2 -244 -2 -220v-8v-317q0 -143 3 -148.5t75.5 -15.5t80.5 -18q66 -10 91 -27q45 -25 45 -78q0 -90 -152 -90h-68 q-43 -2 -65 -2q-72 0 -119 6q-104 12 -145 33q-18 8 -53 12q-49 6 -56 8q-33 8 -67 35q-41 33 -41 62q0 90 108 90v2q23 8 120 10t108 8v148v295q-2 195 -3 292q0 14 -2 21q-2 14 -112 20q-117 8 -129 17q-111 16 -111 86zM291 1438q0 35 43 72q68 53 198 162q4 4 41 31.5 t39 27.5q16 0 62 -41q215 -178 219 -184q45 -37 45 -68q0 -59 -61 -59q-29 0 -132 80q-66 53 -133 104q-2 0 -49 -36t-51 -40q-20 -23 -78 -63q-63 -45 -86 -45t-40 17.5t-17 41.5z" />
<glyph unicode="&#xcf;" d="M221 1141q0 90 121 90q20 0 64 -2h63q63 0 191 2t192 2q80 0 107.5 -23.5t27.5 -105.5v-25q2 -14 2 -22q0 -53 -80 -109q-33 -20 -96 -20q-74 0 -98 -8q-2 -244 -2 -220v-8v-317q0 -143 3 -148.5t75.5 -15.5t80.5 -18q66 -10 91 -27q45 -25 45 -78q0 -90 -152 -90h-68 q-43 -2 -65 -2q-72 0 -119 6q-104 12 -145 33q-18 8 -53 12q-49 6 -56 8q-33 8 -67 35q-41 33 -41 62q0 90 108 90v2q23 8 120 10t108 8v148v295q-2 195 -3 292q0 14 -2 21q-2 14 -112 20q-117 8 -129 17q-111 16 -111 86zM305 1569q0 47 33 80.5t80 33.5q49 0 81.5 -34.5 t32.5 -83.5q0 -45 -31.5 -79t-76.5 -34q-51 0 -85 34t-34 83zM692 1569q0 49 34 81.5t81 32.5t82 -34.5t35 -79.5q0 -47 -35 -83t-80 -36q-49 0 -83 35t-34 84z" />
<glyph unicode="&#xd1;" d="M10 1157q0 68 99 70q139 2 206 2q8 0 56.5 -55.5t54.5 -55.5t24.5 -23.5t18.5 -27.5q0 -31 182 -307q164 -250 226 -328q2 23 14 66q20 55 20 211q0 66 2 272q-84 8 -114 23q-53 25 -54 92q0 133 74 133q45 0 137 -2h138q125 0 125 -88q0 -86 -111 -90q-12 -10 -12 -433 q0 -49 -2 -144t-2 -144q0 39 4 -318q-33 -10 -174 -12q-27 43 -84 125q-43 66 -131 190q-100 150 -304 445q-14 20 -110 123q-8 -66 -31 -199v-2q-14 -72 -14 -86v-289q0 -4 20.5 -18.5t22.5 -17.5t12 -11q4 -2 16 -2q53 -8 107 -33q70 -35 70 -76q0 -113 -93 -131 q-39 -2 -92 -12q-27 -6 -84 -6q-211 0 -211 92q0 88 113 90q16 14 16 445q0 66 2 186q2 147 3 186q-84 14 -112 45t-28 115zM266 1493q0 37 53 96q47 51 87 71.5t73 20.5q39 0 146.5 -80.5t130.5 -80.5q31 0 78 57t71 57q58 0 58 -61q0 -33 -52 -92q-84 -94 -166 -95 q-55 0 -156.5 80t-121.5 80q-27 0 -73 -56t-72 -56q-55 0 -56 59z" />
<glyph unicode="&#xd2;" d="M23 608q0 131 55 252q78 176 220 277.5t329 101.5q180 0 338 -125q152 -121 204 -299q37 -117 37 -250q0 -76 -26 -166q-59 -197 -209 -319q-158 -129 -359 -129q-260 0 -430 203q-160 190 -159 454zM233 565q0 -168 109 -295q113 -137 276 -137q158 0 271 139 q106 133 106 293q0 299 -219 447q-66 45 -172 45q-37 0 -90 -21q-92 -33 -163.5 -117.5t-94.5 -183.5q-23 -90 -23 -170zM319 1694q0 33 22.5 55t53.5 22q20 0 63 -28q47 -39 140 -121q37 -31 106 -92q41 -37 41 -66q0 -63 -66 -63q-18 0 -60 32.5t-116 86.5 q-25 12 -137 104q-47 39 -47 70z" />
<glyph unicode="&#xd3;" d="M23 608q0 131 55 252q78 176 220 277.5t329 101.5q180 0 338 -125q152 -121 204 -299q37 -117 37 -250q0 -76 -26 -166q-59 -197 -209 -319q-158 -129 -359 -129q-260 0 -430 203q-160 190 -159 454zM233 565q0 -168 109 -295q113 -137 276 -137q158 0 271 139 q106 133 106 293q0 299 -219 447q-66 45 -172 45q-37 0 -90 -21q-92 -33 -163.5 -117.5t-94.5 -183.5q-23 -90 -23 -170zM504 1462q0 27 47 68q104 94 240 203q43 35 67 34q72 1 72 -69q0 -37 -37 -66q-27 -35 -244 -194q-51 -37 -82 -37q-63 0 -63 61z" />
<glyph unicode="&#xd4;" d="M23 608q0 131 55 252q78 176 220 277.5t329 101.5q180 0 338 -125q152 -121 204 -299q37 -117 37 -250q0 -76 -26 -166q-59 -197 -209 -319q-158 -129 -359 -129q-260 0 -430 203q-160 190 -159 454zM233 565q0 -168 109 -295q113 -137 276 -137q158 0 271 139 q106 133 106 293q0 299 -219 447q-66 45 -172 45q-37 0 -90 -21q-92 -33 -163.5 -117.5t-94.5 -183.5q-23 -90 -23 -170zM291 1417q0 35 43 72q68 53 198 162q4 4 41 31.5t39 27.5q16 0 62 -41q215 -178 219 -184q45 -37 45 -68q0 -59 -61 -59q-29 0 -132 80 q-66 53 -133 104q-2 0 -49 -36t-51 -40q-20 -23 -78 -63q-63 -45 -86 -45t-40 17.5t-17 41.5z" />
<glyph unicode="&#xd5;" d="M23 608q0 131 55 252q78 176 220 277.5t329 101.5q180 0 338 -125q152 -121 204 -299q37 -117 37 -250q0 -76 -26 -166q-59 -197 -209 -319q-158 -129 -359 -129q-260 0 -430 203q-160 190 -159 454zM233 565q0 -168 109 -295q113 -137 276 -137q158 0 271 139 q106 133 106 293q0 299 -219 447q-66 45 -172 45q-37 0 -90 -21q-92 -33 -163.5 -117.5t-94.5 -183.5q-23 -90 -23 -170zM266 1473q0 37 53 96q47 51 87 71.5t73 20.5q39 0 146.5 -80.5t130.5 -80.5q31 0 78 57t71 57q58 0 58 -61q0 -33 -52 -92q-84 -94 -166 -95 q-55 0 -156.5 80t-121.5 80q-27 0 -73 -56t-72 -56q-55 0 -56 59z" />
<glyph unicode="&#xd6;" d="M23 608q0 131 55 252q78 176 220 277.5t329 101.5q180 0 338 -125q152 -121 204 -299q37 -117 37 -250q0 -76 -26 -166q-59 -197 -209 -319q-158 -129 -359 -129q-260 0 -430 203q-160 190 -159 454zM233 565q0 -168 109 -295q113 -137 276 -137q158 0 271 139 q106 133 106 293q0 299 -219 447q-66 45 -172 45q-37 0 -90 -21q-92 -33 -163.5 -117.5t-94.5 -183.5q-23 -90 -23 -170zM305 1508q0 47 33 80.5t80 33.5q49 0 81.5 -34.5t32.5 -83.5q0 -45 -31.5 -79t-76.5 -34q-51 0 -85 34t-34 83zM692 1508q0 49 34 81.5t81 32.5 t82 -34.5t35 -79.5q0 -47 -35 -83t-80 -36q-49 0 -83 35t-34 84z" />
<glyph unicode="&#xd8;" d="M25 610q0 193 88 342q178 307 514 308q141 0 295 -93q2 2 45 60q29 39 62.5 81t74.5 42q37 0 63.5 -26t26.5 -62q0 -20 -55 -109q0 -4 -34 -60.5t-34 -62.5q25 -39 72 -123q61 -137 61 -282q0 -111 -28 -219q-20 -76 -76 -164q-80 -125 -210 -198t-278 -73 q-127 0 -288 80l-105 -133q-49 -61 -90 -61q-37 0 -64.5 23.5t-27.5 58.5q0 29 63 112q41 53 84 109q-10 29 -28 53q-131 174 -131 397zM233 586q0 -61 21 -131q23 -80 57 -119q10 2 127 168q183 248 365 506q-63 68 -199 67q-117 0 -221 -106q-98 -96 -127 -215 q-23 -90 -23 -170zM442 209q57 -55 174 -55q158 0 271 137q108 131 108 293q0 164 -51 266q-4 8 -16 24q-6 -2 -156 -208q-53 -70 -154 -209q-18 -31 -43 -64q-61 -80 -133 -184z" />
<glyph unicode="&#xd9;" d="M10 1139q0 88 117 88q4 2 23 2h264q131 0 131 -90q0 -61 -86 -84q-96 -25 -105 -43l-8 -8l-6 -5q0 -29 2 -82t2 -79q0 -29 -2 -87.5t-2 -86.5v-119q2 -78 2 -119q0 -47 8 -78q20 -84 99 -138t167 -54q27 0 89 16q174 47 190 197q0 25 6 71q0 2 4 142q2 78 2 336 q0 4 -10 11t-10 11q0 23 -37 33q-63 20 -84 41q-29 27 -29 88q0 12 3 35.5t3 36.5q12 37 15 40q10 14 43 15h145q127 0 162 -6q111 -16 111 -82q0 -92 -111 -97l-4 -16q-14 -8 -14 -311v-289q0 -209 -134.5 -334t-341.5 -125q-250 0 -389 181q-80 100 -88 278q-4 53 -4 238 q0 166 4 178q-4 27 -2 170q-39 8 -82 48t-43 77zM299 1694q0 33 22.5 55t53.5 22q20 0 63 -28q47 -39 140 -121q37 -31 106 -92q41 -37 41 -66q0 -63 -66 -63q-18 0 -60 32.5t-116 86.5q-25 12 -137 104q-47 39 -47 70z" />
<glyph unicode="&#xda;" d="M10 1139q0 88 117 88q4 2 23 2h264q131 0 131 -90q0 -61 -86 -84q-96 -25 -105 -43l-8 -8l-6 -5q0 -29 2 -82t2 -79q0 -29 -2 -87.5t-2 -86.5v-119q2 -78 2 -119q0 -47 8 -78q20 -84 99 -138t167 -54q27 0 89 16q174 47 190 197q0 25 6 71q0 2 4 142q2 78 2 336 q0 4 -10 11t-10 11q0 23 -37 33q-63 20 -84 41q-29 27 -29 88q0 12 3 35.5t3 36.5q12 37 15 40q10 14 43 15h145q127 0 162 -6q111 -16 111 -82q0 -92 -111 -97l-4 -16q-14 -8 -14 -311v-289q0 -209 -134.5 -334t-341.5 -125q-250 0 -389 181q-80 100 -88 278q-4 53 -4 238 q0 166 4 178q-4 27 -2 170q-39 8 -82 48t-43 77zM422 1421q0 27 47 68q104 94 240 203q43 35 67 34q72 1 72 -69q0 -37 -37 -66q-27 -35 -244 -194q-51 -37 -82 -37q-63 0 -63 61z" />
<glyph unicode="&#xdb;" d="M10 1139q0 88 117 88q4 2 23 2h264q131 0 131 -90q0 -61 -86 -84q-96 -25 -105 -43l-8 -8l-6 -5q0 -29 2 -82t2 -79q0 -29 -2 -87.5t-2 -86.5v-119q2 -78 2 -119q0 -47 8 -78q20 -84 99 -138t167 -54q27 0 89 16q174 47 190 197q0 25 6 71q0 2 4 142q2 78 2 336 q0 4 -10 11t-10 11q0 23 -37 33q-63 20 -84 41q-29 27 -29 88q0 12 3 35.5t3 36.5q12 37 15 40q10 14 43 15h145q127 0 162 -6q111 -16 111 -82q0 -92 -111 -97l-4 -16q-14 -8 -14 -311v-289q0 -209 -134.5 -334t-341.5 -125q-250 0 -389 181q-80 100 -88 278q-4 53 -4 238 q0 166 4 178q-4 27 -2 170q-39 8 -82 48t-43 77zM291 1438q0 35 43 72q68 53 198 162q4 4 41 31.5t39 27.5q16 0 62 -41q215 -178 219 -184q45 -37 45 -68q0 -59 -61 -59q-29 0 -132 80q-66 53 -133 104q-2 0 -49 -36t-51 -40q-20 -23 -78 -63q-63 -45 -86 -45t-40 17.5 t-17 41.5z" />
<glyph unicode="&#xdc;" d="M10 1139q0 88 117 88q4 2 23 2h264q131 0 131 -90q0 -61 -86 -84q-96 -25 -105 -43l-8 -8l-6 -5q0 -29 2 -82t2 -79q0 -29 -2 -87.5t-2 -86.5v-119q2 -78 2 -119q0 -47 8 -78q20 -84 99 -138t167 -54q27 0 89 16q174 47 190 197q0 25 6 71q0 2 4 142q2 78 2 336 q0 4 -10 11t-10 11q0 23 -37 33q-63 20 -84 41q-29 27 -29 88q0 12 3 35.5t3 36.5q12 37 15 40q10 14 43 15h145q127 0 162 -6q111 -16 111 -82q0 -92 -111 -97l-4 -16q-14 -8 -14 -311v-289q0 -209 -134.5 -334t-341.5 -125q-250 0 -389 181q-80 100 -88 278q-4 53 -4 238 q0 166 4 178q-4 27 -2 170q-39 8 -82 48t-43 77zM305 1508q0 47 33 80.5t80 33.5q49 0 81.5 -34.5t32.5 -83.5q0 -45 -31.5 -79t-76.5 -34q-51 0 -85 34t-34 83zM692 1508q0 49 34 81.5t81 32.5t82 -34.5t35 -79.5q0 -47 -35 -83t-80 -36q-49 0 -83 35t-34 84z" />
<glyph unicode="&#xdf;" d="M45 8q0 63 55 86q31 14 109 17l-27 784q-2 139 113 223q102 76 246 76q154 0 258 -96.5t104 -249.5q0 -90 -65 -172q256 -137 256 -420q0 -154 -80 -254q-86 -109 -234 -108q-104 0 -173.5 64.5t-69.5 166.5q0 115 104 115q63 0 89 -71t69 -71q90 0 90 158 q0 244 -320 283q-117 14 -116 104q0 61 63 86q59 16 119 33q63 27 63 96q0 61 -46 96t-111 35q-156 0 -154 -125l2 -8l25 -739q92 -12 92 -103q0 -98 -131 -102q-190 -8 -203 -8q-127 0 -127 104z" />
<glyph unicode="&#xe0;" d="M139 158q0 152 148 245q121 78 288 93q96 8 191 6v8v35q-6 98 -158 98q-102 0 -221 -43q-63 -23 -80 -22q-41 0 -66.5 26.5t-25.5 67.5q0 61 61 86q160 68 326 67q274 0 340 -180q10 -27 16 -86q8 -86 11 -385l8 -6q0 -6 27 -23q14 -10 45 -26q27 -8 53 -20.5t26 -41.5 q0 -80 -84 -102q-37 -10 -147 -10q-84 0 -109 6l-4 37q-156 -84 -315 -84q-125 0 -221 61q-109 74 -109 193zM299 1264q0 33 22.5 55t53.5 22q20 0 63 -28q47 -39 140 -121q37 -31 106 -92q41 -37 41 -66q0 -63 -66 -63q-18 0 -60 32.5t-116 86.5q-25 12 -137 104 q-47 39 -47 70zM344 168q0 -41 55 -62q41 -16 90 -16q139 0 289 119v24v74q-131 35 -182 35q-76 0 -158 -49q-94 -53 -94 -125z" />
<glyph unicode="&#xe1;" d="M139 158q0 152 148 245q121 78 288 93q96 8 191 6v8v35q-6 98 -158 98q-102 0 -221 -43q-63 -23 -80 -22q-41 0 -66.5 26.5t-25.5 67.5q0 61 61 86q160 68 326 67q274 0 340 -180q10 -27 16 -86q8 -86 11 -385l8 -6q0 -6 27 -23q14 -10 45 -26q27 -8 53 -20.5t26 -41.5 q0 -80 -84 -102q-37 -10 -147 -10q-84 0 -109 6l-4 37q-156 -84 -315 -84q-125 0 -221 61q-109 74 -109 193zM344 168q0 -41 55 -62q41 -16 90 -16q139 0 289 119v24v74q-131 35 -182 35q-76 0 -158 -49q-94 -53 -94 -125zM463 1032q0 27 47 68q104 94 240 203q43 35 67 34 q72 1 72 -69q0 -37 -37 -66q-27 -35 -244 -194q-51 -37 -82 -37q-63 0 -63 61z" />
<glyph unicode="&#xe2;" d="M139 158q0 152 148 245q121 78 288 93q96 8 191 6v8v35q-6 98 -158 98q-102 0 -221 -43q-63 -23 -80 -22q-41 0 -66.5 26.5t-25.5 67.5q0 61 61 86q160 68 326 67q274 0 340 -180q10 -27 16 -86q8 -86 11 -385l8 -6q0 -6 27 -23q14 -10 45 -26q27 -8 53 -20.5t26 -41.5 q0 -80 -84 -102q-37 -10 -147 -10q-84 0 -109 6l-4 37q-156 -84 -315 -84q-125 0 -221 61q-109 74 -109 193zM291 1028q0 35 43 72q68 53 198 162q4 4 41 31.5t39 27.5q16 0 62 -41q215 -178 219 -184q45 -37 45 -68q0 -59 -61 -59q-29 0 -132 80q-66 53 -133 104 q-2 0 -49 -36t-51 -40q-20 -23 -78 -63q-63 -45 -86 -45t-40 17.5t-17 41.5zM344 168q0 -41 55 -62q41 -16 90 -16q139 0 289 119v24v74q-131 35 -182 35q-76 0 -158 -49q-94 -53 -94 -125z" />
<glyph unicode="&#xe3;" d="M139 158q0 152 148 245q121 78 288 93q96 8 191 6v8v35q-6 98 -158 98q-102 0 -221 -43q-63 -23 -80 -22q-41 0 -66.5 26.5t-25.5 67.5q0 61 61 86q160 68 326 67q274 0 340 -180q10 -27 16 -86q8 -86 11 -385l8 -6q0 -6 27 -23q14 -10 45 -26q27 -8 53 -20.5t26 -41.5 q0 -80 -84 -102q-37 -10 -147 -10q-84 0 -109 6l-4 37q-156 -84 -315 -84q-125 0 -221 61q-109 74 -109 193zM266 1063q0 37 53 96q47 51 87 71.5t73 20.5q39 0 146.5 -80.5t130.5 -80.5q31 0 78 57t71 57q58 0 58 -61q0 -33 -52 -92q-84 -94 -166 -95q-55 0 -156.5 80 t-121.5 80q-27 0 -73 -56t-72 -56q-55 0 -56 59zM344 168q0 -41 55 -62q41 -16 90 -16q139 0 289 119v24v74q-131 35 -182 35q-76 0 -158 -49q-94 -53 -94 -125z" />
<glyph unicode="&#xe4;" d="M139 158q0 152 148 245q121 78 288 93q96 8 191 6v8v35q-6 98 -158 98q-102 0 -221 -43q-63 -23 -80 -22q-41 0 -66.5 26.5t-25.5 67.5q0 61 61 86q160 68 326 67q274 0 340 -180q10 -27 16 -86q8 -86 11 -385l8 -6q0 -6 27 -23q14 -10 45 -26q27 -8 53 -20.5t26 -41.5 q0 -80 -84 -102q-37 -10 -147 -10q-84 0 -109 6l-4 37q-156 -84 -315 -84q-125 0 -221 61q-109 74 -109 193zM305 1139q0 47 33 80.5t80 33.5q49 0 81.5 -34.5t32.5 -83.5q0 -45 -31.5 -79t-76.5 -34q-51 0 -85 34t-34 83zM344 168q0 -41 55 -62q41 -16 90 -16 q139 0 289 119v24v74q-131 35 -182 35q-76 0 -158 -49q-94 -53 -94 -125zM692 1139q0 49 34 81.5t81 32.5t82 -34.5t35 -79.5q0 -47 -35 -83t-80 -36q-49 0 -83 35t-34 84z" />
<glyph unicode="&#xe5;" d="M139 158q0 152 148 245q121 78 288 93q96 8 191 6v8v35q-6 98 -158 98q-102 0 -221 -43q-63 -23 -80 -22q-41 0 -66.5 26.5t-25.5 67.5q0 61 61 86q160 68 326 67q274 0 340 -180q10 -27 16 -86q8 -86 11 -385l8 -6q0 -6 27 -23q14 -10 45 -26q27 -8 53 -20.5t26 -41.5 q0 -80 -84 -102q-37 -10 -147 -10q-84 0 -109 6l-4 37q-156 -84 -315 -84q-125 0 -221 61q-109 74 -109 193zM344 168q0 -41 55 -62q41 -16 90 -16q139 0 289 119v24v74q-131 35 -182 35q-76 0 -158 -49q-94 -53 -94 -125zM387 1167q0 86 69.5 151.5t157.5 65.5t158 -65.5 t70 -153.5q0 -92 -68.5 -157.5t-161.5 -65.5q-94 0 -159.5 66.5t-65.5 158.5zM487 1163q0 -47 38 -84t85 -37q53 0 92 36t39 87q0 49 -39.5 85t-89.5 36q-49 0 -87 -37t-38 -86z" />
<glyph unicode="&#xe6;" d="M6 272q0 129 137 211q113 66 254 72l117 6q4 10 4 35q0 45 -27.5 77t-70.5 32q-39 0 -114 -30t-103 -30q-35 0 -60.5 28.5t-25.5 65.5q0 74 82 103q135 47 221 47q119 0 203 -82q8 -10 30 -31l29 29q90 82 197 82q137 0 242.5 -107.5t105.5 -244.5q0 -35 -8 -68 q2 -4 2 -10q0 -57 -15 -58q-2 0 -5 -11t-5 -11h-168h-168q-49 0 -108 -4q-35 -4 -35 -8t8 -33q23 -84 64.5 -120t125.5 -36q39 0 109 24.5t104 24.5q88 0 89 -84q0 -23 -17 -49q-70 -123 -315 -123q-92 0 -183 60q-29 -18 -55 -19q-51 0 -86 37q-145 -78 -235 -78 q-143 0 -231.5 81t-88.5 222zM203 270q0 -55 45 -86q39 -29 96 -28q90 0 182 96q-2 41 -6 121q-70 33 -96 33q-68 0 -137 -33q-84 -41 -84 -103zM727 539l23 -4q8 -4 122 -5h72q33 0 49.5 2.5t16.5 4.5q0 14 -11 49q-33 123 -131 123q-117 0 -141 -170z" />
<glyph unicode="&#xe7;" d="M152 418q0 207 138 338t347 131q145 0 248 -49q37 27 71 26q111 0 111 -135q0 -98 -2 -111q-2 -115 -92 -114q-66 0 -90 53q-39 84 -52 98q-55 51 -194 52q-131 0 -210 -74t-79 -205q0 -53 12 -92q29 -88 132 -139q88 -47 190 -47q178 0 256 61q49 39 76 39 q37 0 63.5 -22.5t26.5 -59.5q0 -27 -21 -57q-47 -66 -163 -101q-59 -18 -195 -39h-8l-2 -14l8 -16q6 -10 8 -41q117 -37 117 -148q0 -70 -57.5 -116t-128.5 -46q-74 0 -144 27q-92 35 -92 96q0 27 20.5 46.5t45.5 19.5q12 0 65 -29t100 -29q61 0 62 35q0 27 -55 33 q-66 10 -68 10l-10 4q-2 59 0 172q-18 2 -29 7q-184 29 -294.5 140t-110.5 296z" />
<glyph unicode="&#xe8;" d="M145 543q0 186 137.5 315t323.5 129q178 0 314 -98q152 -111 135 -281q2 -4 2 -16q0 -55 -10 -60q-61 -4 -150 -10l-369 -24q-61 -4 -145 -17q-20 -2 -43 -8q4 -14 20 -41q72 -117 269 -117q98 0 217 33q145 39 149 39q33 0 54.5 -23.5t21.5 -54.5q0 -27 -24 -57 q-57 -66 -207 -105q-123 -31 -238 -30q-188 0 -322.5 118.5t-134.5 307.5zM299 1428q0 33 22.5 55t53.5 22q20 0 63 -28q47 -39 140 -121q37 -31 106 -92q41 -37 41 -66q0 -63 -66 -63q-18 0 -60 32.5t-116 86.5q-25 12 -137 104q-47 39 -47 70zM342 641q61 -2 55 -2 q55 0 240 14q195 15 211 21q-4 16 -23 45q-68 98 -219 98q-90 0 -166 -43q-84 -49 -98 -133z" />
<glyph unicode="&#xe9;" d="M145 543q0 186 137.5 315t323.5 129q178 0 314 -98q152 -111 135 -281q2 -4 2 -16q0 -55 -10 -60q-61 -4 -150 -10l-369 -24q-61 -4 -145 -17q-20 -2 -43 -8q4 -14 20 -41q72 -117 269 -117q98 0 217 33q145 39 149 39q33 0 54.5 -23.5t21.5 -54.5q0 -27 -24 -57 q-57 -66 -207 -105q-123 -31 -238 -30q-188 0 -322.5 118.5t-134.5 307.5zM342 641q61 -2 55 -2q55 0 240 14q195 15 211 21q-4 16 -23 45q-68 98 -219 98q-90 0 -166 -43q-84 -49 -98 -133zM504 1175q0 27 47 68q104 94 240 203q43 35 67 34q72 1 72 -69q0 -37 -37 -66 q-27 -35 -244 -194q-51 -37 -82 -37q-63 0 -63 61z" />
<glyph unicode="&#xea;" d="M145 543q0 186 137.5 315t323.5 129q178 0 314 -98q152 -111 135 -281q2 -4 2 -16q0 -55 -10 -60q-61 -4 -150 -10l-369 -24q-61 -4 -145 -17q-20 -2 -43 -8q4 -14 20 -41q72 -117 269 -117q98 0 217 33q145 39 149 39q33 0 54.5 -23.5t21.5 -54.5q0 -27 -24 -57 q-57 -66 -207 -105q-123 -31 -238 -30q-188 0 -322.5 118.5t-134.5 307.5zM291 1171q0 35 43 72q68 53 198 162q4 4 41 31.5t39 27.5q16 0 62 -41q215 -178 219 -184q45 -37 45 -68q0 -59 -61 -59q-29 0 -132 80q-66 53 -133 104q-2 0 -49 -36t-51 -40q-20 -23 -78 -63 q-63 -45 -86 -45t-40 17.5t-17 41.5zM342 641q61 -2 55 -2q55 0 240 14q195 15 211 21q-4 16 -23 45q-68 98 -219 98q-90 0 -166 -43q-84 -49 -98 -133z" />
<glyph unicode="&#xeb;" d="M145 543q0 186 137.5 315t323.5 129q178 0 314 -98q152 -111 135 -281q2 -4 2 -16q0 -55 -10 -60q-61 -4 -150 -10l-369 -24q-61 -4 -145 -17q-20 -2 -43 -8q4 -14 20 -41q72 -117 269 -117q98 0 217 33q145 39 149 39q33 0 54.5 -23.5t21.5 -54.5q0 -27 -24 -57 q-57 -66 -207 -105q-123 -31 -238 -30q-188 0 -322.5 118.5t-134.5 307.5zM305 1282q0 47 33 80.5t80 33.5q49 0 81.5 -34.5t32.5 -83.5q0 -45 -31.5 -79t-76.5 -34q-51 0 -85 34t-34 83zM342 641q61 -2 55 -2q55 0 240 14q195 15 211 21q-4 16 -23 45q-68 98 -219 98 q-90 0 -166 -43q-84 -49 -98 -133zM692 1282q0 49 34 81.5t81 32.5t82 -34.5t35 -79.5q0 -47 -35 -83t-80 -36q-49 0 -83 35t-34 84z" />
<glyph unicode="&#xec;" d="M209 53q0 92 110 97q31 8 100.5 4t98.5 4v186q-2 125 -2 186q0 39 4 66l-24 4q-63 4 -125 10q-100 12 -101 90q0 41 43 72t86 31h19q-31 0 295 -6q-2 -125 -2 -256v-248q0 -109 1 -122t95 -32q102 -18 115 -26q59 -16 73 -25q37 -20 37 -63q0 -88 -135 -88h-145 q-98 2 -148 2q-35 0 -104 -2h-107h-82q-102 8 -102 116zM299 1264q0 33 22.5 55t53.5 22q20 0 63 -28q47 -39 140 -121q37 -31 106 -92q41 -37 41 -66q0 -63 -66 -63q-18 0 -60 32.5t-116 86.5q-25 12 -137 104q-47 39 -47 70z" />
<glyph unicode="&#xed;" d="M209 53q0 92 110 97q31 8 100.5 4t98.5 4v186q-2 125 -2 186q0 39 4 66l-24 4q-63 4 -125 10q-100 12 -101 90q0 41 43 72t86 31h19q-31 0 295 -6q-2 -125 -2 -256v-248q0 -109 1 -122t95 -32q102 -18 115 -26q59 -16 73 -25q37 -20 37 -63q0 -88 -135 -88h-145 q-98 2 -148 2q-35 0 -104 -2h-107h-82q-102 8 -102 116zM484 1032q0 27 47 68q104 94 240 203q43 35 67 34q72 1 72 -69q0 -37 -37 -66q-27 -35 -244 -194q-51 -37 -82 -37q-63 0 -63 61z" />
<glyph unicode="&#xee;" d="M209 53q0 92 110 97q31 8 100.5 4t98.5 4v186q-2 125 -2 186q0 39 4 66l-24 4q-63 4 -125 10q-100 12 -101 90q0 41 43 72t86 31h19q-31 0 295 -6q-2 -125 -2 -256v-248q0 -109 1 -122t95 -32q102 -18 115 -26q59 -16 73 -25q37 -20 37 -63q0 -88 -135 -88h-145 q-98 2 -148 2q-35 0 -104 -2h-107h-82q-102 8 -102 116zM291 1028q0 35 43 72q68 53 198 162q4 4 41 31.5t39 27.5q16 0 62 -41q215 -178 219 -184q45 -37 45 -68q0 -59 -61 -59q-29 0 -132 80q-66 53 -133 104q-2 0 -49 -36t-51 -40q-20 -23 -78 -63q-63 -45 -86 -45 t-40 17.5t-17 41.5z" />
<glyph unicode="&#xef;" d="M209 53q0 92 110 97q31 8 100.5 4t98.5 4v186q-2 125 -2 186q0 39 4 66l-24 4q-63 4 -125 10q-100 12 -101 90q0 41 43 72t86 31h19q-31 0 295 -6q-2 -125 -2 -256v-248q0 -109 1 -122t95 -32q102 -18 115 -26q59 -16 73 -25q37 -20 37 -63q0 -88 -135 -88h-145 q-98 2 -148 2q-35 0 -104 -2h-107h-82q-102 8 -102 116zM305 1139q0 47 33 80.5t80 33.5q49 0 81.5 -34.5t32.5 -83.5q0 -45 -31.5 -79t-76.5 -34q-51 0 -85 34t-34 83zM692 1139q0 49 34 81.5t81 32.5t82 -34.5t35 -79.5q0 -47 -35 -83t-80 -36q-49 0 -83 35t-34 84z" />
<glyph unicode="&#xf1;" d="M88 129q0 35 53 57q68 29 80 47q2 203 4 457q-119 37 -119 109q0 76 115 88q10 6 94 10t95 8l4 -16q0 -25 4 -62q0 -6 2 -8q123 111 256 111q295 0 332 -279q4 -27 4 -129q0 -283 14 -305q107 -2 107 -88q0 -68 -74 -84q-18 -4 -123 -4h-43q-27 -2 -41 -2q-145 0 -145 90 q0 41 35.5 74t76.5 35v145q0 31 2 80v82q0 145 -90 186q-39 18 -80 19q-127 0 -233 -136l2 -57q0 -37 -2 -108.5t-2 -104.5v-43q2 -29 2 -43q2 -4 10 -14.5t64 -36.5q45 -23 45 -51q0 -84 -64 -109q-12 -6 -55 -6h-49q-35 -2 -52 -2q-100 0 -139 10q-90 18 -90 80zM266 1227 q0 37 53 96q47 51 87 71.5t73 20.5q39 0 146.5 -80.5t130.5 -80.5q31 0 78 57t71 57q58 0 58 -61q0 -33 -52 -92q-84 -94 -166 -95q-55 0 -156.5 80t-121.5 80q-27 0 -73 -56t-72 -56q-55 0 -56 59z" />
<glyph unicode="&#xf2;" d="M119 469q0 205 149 336q143 123 353 123q201 0 342 -123q147 -131 147 -328t-145.5 -331t-343.5 -134q-203 0 -349 125q-154 133 -153 332zM299 1366q0 33 22.5 55t53.5 22q20 0 63 -28q47 -39 140 -121q37 -31 106 -92q41 -37 41 -66q0 -63 -66 -63q-18 0 -60 32.5 t-116 86.5q-25 12 -137 104q-47 39 -47 70zM311 479q0 -84 47.5 -153.5t122 -101t131.5 -31.5q123 0 213 79.5t90 200.5q0 72 -47 143q-84 131 -264 132q-117 0 -205 -78t-88 -191z" />
<glyph unicode="&#xf3;" d="M119 469q0 205 149 336q143 123 353 123q201 0 342 -123q147 -131 147 -328t-145.5 -331t-343.5 -134q-203 0 -349 125q-154 133 -153 332zM311 479q0 -84 47.5 -153.5t122 -101t131.5 -31.5q123 0 213 79.5t90 200.5q0 72 -47 143q-84 131 -264 132q-117 0 -205 -78 t-88 -191zM504 1134q0 27 47 68q104 94 240 203q43 35 67 34q72 1 72 -69q0 -37 -37 -66q-27 -35 -244 -194q-51 -37 -82 -37q-63 0 -63 61z" />
<glyph unicode="&#xf4;" d="M119 469q0 205 149 336q143 123 353 123q201 0 342 -123q147 -131 147 -328t-145.5 -331t-343.5 -134q-203 0 -349 125q-154 133 -153 332zM291 1171q0 35 43 72q68 53 198 162q4 4 41 31.5t39 27.5q16 0 62 -41q215 -178 219 -184q45 -37 45 -68q0 -59 -61 -59 q-29 0 -132 80q-66 53 -133 104q-2 0 -49 -36t-51 -40q-20 -23 -78 -63q-63 -45 -86 -45t-40 17.5t-17 41.5zM311 479q0 -84 47.5 -153.5t122 -101t131.5 -31.5q123 0 213 79.5t90 200.5q0 72 -47 143q-84 131 -264 132q-117 0 -205 -78t-88 -191z" />
<glyph unicode="&#xf5;" d="M119 469q0 205 149 336q143 123 353 123q201 0 342 -123q147 -131 147 -328t-145.5 -331t-343.5 -134q-203 0 -349 125q-154 133 -153 332zM266 1145q0 37 53 96q47 51 87 71.5t73 20.5q39 0 146.5 -80.5t130.5 -80.5q31 0 78 57t71 57q58 0 58 -61q0 -33 -52 -92 q-84 -94 -166 -95q-55 0 -156.5 80t-121.5 80q-27 0 -73 -56t-72 -56q-55 0 -56 59zM311 479q0 -84 47.5 -153.5t122 -101t131.5 -31.5q123 0 213 79.5t90 200.5q0 72 -47 143q-84 131 -264 132q-117 0 -205 -78t-88 -191z" />
<glyph unicode="&#xf6;" d="M119 469q0 205 149 336q143 123 353 123q201 0 342 -123q147 -131 147 -328t-145.5 -331t-343.5 -134q-203 0 -349 125q-154 133 -153 332zM305 1241q0 47 33 80.5t80 33.5q49 0 81.5 -34.5t32.5 -83.5q0 -45 -31.5 -79t-76.5 -34q-51 0 -85 34t-34 83zM311 479 q0 -84 47.5 -153.5t122 -101t131.5 -31.5q123 0 213 79.5t90 200.5q0 72 -47 143q-84 131 -264 132q-117 0 -205 -78t-88 -191zM692 1241q0 49 34 81.5t81 32.5t82 -34.5t35 -79.5q0 -47 -35 -83t-80 -36q-49 0 -83 35t-34 84z" />
<glyph unicode="&#xf7;" d="M33 1266q0 47 57 80q49 29 100 28q176 0 197 -6q-6 -195 -6 -219v-211q47 14 100 14q6 0 18.5 -2t18.5 -2q8 0 43 11.5t107 11.5q109 0 194 -41q273 -127 273 -430q0 -201 -135.5 -323t-337.5 -122q-133 0 -275 90l-4 -61q-10 -2 -160 -2q-74 0 -73 4l4 6q-10 8 -29 29 q-70 25 -70 102q0 104 135 125v506q0 283 -4 293q-4 18 -82 51q-25 12 -48 24.5t-23 43.5z" />
<glyph unicode="&#xf8;" d="M86 29q0 51 49 108l78 90q-63 102 -63 217q0 274 286 396q55 23 112.5 45t113.5 22q59 0 142 -44t79 -44q2 0 62.5 56.5t88.5 56.5q43 0 72 -37t29 -82t-45 -100q-31 -37 -80 -97q31 -66 30 -149q0 -12 -16 -113q-16 -90 -39 -135q-59 -115 -177 -189.5t-249 -74.5 q-109 0 -209 49q-8 -4 -54 -47t-48 -41l16 29q-45 -25 -78 -25q-41 0 -70.5 34t-29.5 75zM336 383q0 -57 57 -131q25 4 189 180t168 203q-72 43 -105 43q-29 0 -100 -29q-117 -49 -174 -153q-35 -66 -35 -113zM483 231q70 -55 95 -55q31 0 108.5 35t136.5 106q66 80 66 160 q0 59 -62 125q-8 -2 -77 -72q-59 -59 -82 -84q-90 -98 -185 -215z" />
<glyph unicode="&#xf9;" d="M78 737q0 88 98 88q6 0 16.5 -2t16.5 -2l201 2q4 0 8 -26q8 -47 8 -82v-43q-2 -29 -2 -43v-363q0 -150 158 -149q80 0 139 41q41 29 100 102q0 63 2 166v164q0 4 -18.5 10t-18.5 8t-61 27q-78 31 -78 106q0 82 98 82h31q20 -2 31 -2h39.5h40.5q115 0 127 -10v-633 q41 -8 75.5 -42t34.5 -73q0 -80 -133 -96q-37 -14 -170 -14q-4 0 -4 20q0 31 -4 72q-123 -111 -246 -111q-182 0 -280 136q-55 76 -56 256q0 47 2 141v139q0 14 -36 41l-19 -2q-41 0 -70.5 25.5t-29.5 66.5zM299 1264q0 33 22.5 55t53.5 22q20 0 63 -28q47 -39 140 -121 q37 -31 106 -92q41 -37 41 -66q0 -63 -66 -63q-18 0 -60 32.5t-116 86.5q-25 12 -137 104q-47 39 -47 70z" />
<glyph unicode="&#xfa;" d="M78 737q0 88 98 88q6 0 16.5 -2t16.5 -2l201 2q4 0 8 -26q8 -47 8 -82v-43q-2 -29 -2 -43v-363q0 -150 158 -149q80 0 139 41q41 29 100 102q0 63 2 166v164q0 4 -18.5 10t-18.5 8t-61 27q-78 31 -78 106q0 82 98 82h31q20 -2 31 -2h39.5h40.5q115 0 127 -10v-633 q41 -8 75.5 -42t34.5 -73q0 -80 -133 -96q-37 -14 -170 -14q-4 0 -4 20q0 31 -4 72q-123 -111 -246 -111q-182 0 -280 136q-55 76 -56 256q0 47 2 141v139q0 14 -36 41l-19 -2q-41 0 -70.5 25.5t-29.5 66.5zM504 1032q0 27 47 68q104 94 240 203q43 35 67 34q72 1 72 -69 q0 -37 -37 -66q-27 -35 -244 -194q-51 -37 -82 -37q-63 0 -63 61z" />
<glyph unicode="&#xfb;" d="M78 737q0 88 98 88q6 0 16.5 -2t16.5 -2l201 2q4 0 8 -26q8 -47 8 -82v-43q-2 -29 -2 -43v-363q0 -150 158 -149q80 0 139 41q41 29 100 102q0 63 2 166v164q0 4 -18.5 10t-18.5 8t-61 27q-78 31 -78 106q0 82 98 82h31q20 -2 31 -2h39.5h40.5q115 0 127 -10v-633 q41 -8 75.5 -42t34.5 -73q0 -80 -133 -96q-37 -14 -170 -14q-4 0 -4 20q0 31 -4 72q-123 -111 -246 -111q-182 0 -280 136q-55 76 -56 256q0 47 2 141v139q0 14 -36 41l-19 -2q-41 0 -70.5 25.5t-29.5 66.5zM291 1028q0 35 43 72q68 53 198 162q4 4 41 31.5t39 27.5 q16 0 62 -41q215 -178 219 -184q45 -37 45 -68q0 -59 -61 -59q-29 0 -132 80q-66 53 -133 104q-2 0 -49 -36t-51 -40q-20 -23 -78 -63q-63 -45 -86 -45t-40 17.5t-17 41.5z" />
<glyph unicode="&#xfc;" d="M78 737q0 88 98 88q6 0 16.5 -2t16.5 -2l201 2q4 0 8 -26q8 -47 8 -82v-43q-2 -29 -2 -43v-363q0 -150 158 -149q80 0 139 41q41 29 100 102q0 63 2 166v164q0 4 -18.5 10t-18.5 8t-61 27q-78 31 -78 106q0 82 98 82h31q20 -2 31 -2h39.5h40.5q115 0 127 -10v-633 q41 -8 75.5 -42t34.5 -73q0 -80 -133 -96q-37 -14 -170 -14q-4 0 -4 20q0 31 -4 72q-123 -111 -246 -111q-182 0 -280 136q-55 76 -56 256q0 47 2 141v139q0 14 -36 41l-19 -2q-41 0 -70.5 25.5t-29.5 66.5zM305 1139q0 47 33 80.5t80 33.5q49 0 81.5 -34.5t32.5 -83.5 q0 -45 -31.5 -79t-76.5 -34q-51 0 -85 34t-34 83zM692 1139q0 49 34 81.5t81 32.5t82 -34.5t35 -79.5q0 -47 -35 -83t-80 -36q-49 0 -83 35t-34 84z" />
<glyph unicode="&#xff;" d="M88 -172q0 53 41 74q16 10 84 22q84 6 182 25l25 51q39 72 78 160q0 18 -46 118.5t-46 112.5t-93 197q-55 111 -108 223q-84 12 -84 96q0 90 90 117q16 4 41 12l16 4q8 8 105 9q141 0 141 -93q0 -41 -30.5 -67.5t-73.5 -28.5q0 -8 41 -94q45 -92 50 -107.5t60 -124 t60 -110.5q27 33 59 108q55 98 158 302q-100 2 -101 96q0 16 6 41q14 51 50 65q23 12 81 13q90 0 136 -2q131 -3 131 -89q0 -78 -97 -102q-61 -117 -106 -215q-35 -66 -100 -201q-29 -59 -88 -176q-16 -33 -48 -102q-20 -51 -86 -168q102 -14 103 -98q0 -84 -113 -105 q-14 -8 -119.5 -19.5t-128.5 -21.5q-31 -16 -133 -16q-12 0 -20 4q-8 -2 -17 -2q-100 0 -100 92zM305 1364q0 47 33 80.5t80 33.5q49 0 81.5 -34.5t32.5 -83.5q0 -45 -31.5 -79t-76.5 -34q-51 0 -85 34t-34 83zM692 1364q0 49 34 81.5t81 32.5t82 -34.5t35 -79.5 q0 -47 -35 -83t-80 -36q-49 0 -83 35t-34 84z" />
<glyph unicode="&#x152;" d="M-53 563q0 610 465 611q12 25 14 26q10 12 25 14q16 18 387 23q115 0 149 -6q80 2 164 -4q6 -25 18 -72q0 -4 3.5 -5t7.5 -23.5t7 -22.5t11 -37t10 -38t4 -3q4 -27 15 -53l4 -17q0 -4 4 -16t4 -18q0 -70 -70 -84l2 -15l-4 -8q-12 -2 -22 -2q-53 0 -64 90q-4 55 -6 109 q-45 6 -100 20q-14 10 -146 10q-4 -2 -6 -10q-4 -25 -12 -74q-4 -23 -7 -22.5t-9 -28.5q-12 -72 -13 -102q0 -6 11.5 -18.5t11.5 -20.5l6 -8q6 66 61 65q8 0 19 -2l96 -110q4 0 7 -5.5t8.5 -5.5t9.5 -20.5t6 -22.5t4 -10t3 -9t2 -5t3 -55v-15q4 -104 -49 -145 q-20 -14 -37 -15q-84 0 -90 99q-8 2 -23 12q-4 4 -22 8q-2 -4 -4 -20q-2 -31 -12 -62q-2 -12 -7 -39q-4 -6 -4 -106v-23q20 -4 43 -12q78 -10 181 -24q6 0 14 -5q0 51 6 64q18 31 98 31q63 0 87 -42t40 -44h4q-6 0 9 -2q0 -2 2 -9q2 -39 8 -82q12 -18 12 -88q0 -4 -10 -8 q-55 -8 -133 -35q-12 -2 -29 -8q-12 -12 -86 -12q-14 0 -42 3t-42 3q-45 0 -138 -2t-138 -2q-197 0 -277 14q-145 25 -248 113q-119 104 -170 264q-27 86 -26 174zM139 584q0 -53 21 -131q10 -41 43 -97q106 -174 307 -174q29 0 59 8q4 6 6 177v254q0 31 2.5 95t2.5 97 q0 41 -13 117q-16 92 -32 92q-2 0 -6.5 15.5t-6.5 15.5q-35 0 -90 -17q-100 -31 -174 -106.5t-98 -175.5q-20 -84 -21 -170z" />
<glyph unicode="&#x153;" d="M-4 442q0 168 104 301q111 143 273 144q137 0 260 -154q82 90 110 111q61 43 150 43q133 0 244.5 -102.5t111.5 -233.5q0 -43 -14 -88q2 -2 2 -6q0 -35 -16 -35q-2 0 -19.5 -23.5t-19.5 -23.5l-230 2q-74 0 -176 -6q-47 -4 -47 -9q0 -2 4 -20q39 -176 182 -176 q55 0 134 30.5t100 30.5q37 0 60.5 -25.5t23.5 -62.5q0 -23 -19 -51q-74 -119 -319 -119q-145 0 -264 144q-119 -143 -262 -144q-139 0 -244 111q-96 102 -121 246q-8 55 -8 116zM188 442q0 -209 123 -272q35 -18 58 -18q84 0 131 102q37 78 37 172q0 98 -41 178 q-49 100 -138 101q-80 0 -129 -95q-41 -80 -41 -168zM743 537l25 -5q8 -4 123 -4h70q33 0 53 2q12 3 12 5q0 10 -12 51q-37 121 -129 121q-106 0 -142 -170z" />
<glyph unicode="&#x178;" d="M43 1141q0 61 53 78q25 8 103 8q10 0 28 2h27q-4 0 41 -2q113 -4 125 -6q76 -16 76 -82q0 -53 -76 -101q94 -137 203 -299l18 19q8 2 83 108.5t87 128.5q-51 33 -51 86q0 18 10 62q14 51 37.5 68.5t77.5 17.5q51 0 149 -2q152 -2 152 -90q0 -86 -137 -111 q-63 -94 -195 -281q-41 -61 -125 -182q-10 -16 -10 -311q14 -6 35 -14q10 -4 71 -11v-18q131 -53 131 -125q0 -86 -112 -86q-6 -2 -53 -2q-135 0 -310 4q-55 -4 -129 4q-51 31 -51 129q0 55 92 107l19 10q2 2 80 8q6 0 20 2q4 0 8 2q0 172 -8 191q-2 49 -12 114q-2 2 -39 56 q-61 88 -185 266q-33 51 -106 151q-127 12 -127 101zM305 1528q0 47 33 80.5t80 33.5q49 0 81.5 -34.5t32.5 -83.5q0 -45 -31.5 -79t-76.5 -34q-51 0 -85 34t-34 83zM692 1528q0 49 34 81.5t81 32.5t82 -34.5t35 -79.5q0 -47 -35 -83t-80 -36q-49 0 -83 35t-34 84z" />
<glyph unicode="&#x2c6;" d="M291 1028q0 35 43 72q68 53 198 162q4 4 41 31.5t39 27.5q16 0 62 -41q215 -178 219 -184q45 -37 45 -68q0 -59 -61 -59q-29 0 -132 80q-66 53 -133 104q-2 0 -49 -36t-51 -40q-20 -23 -78 -63q-63 -45 -86 -45t-40 17.5t-17 41.5z" />
<glyph unicode="&#x2dc;" d="M266 1063q0 37 53 96q47 51 87 71.5t73 20.5q39 0 146.5 -80.5t130.5 -80.5q31 0 78 57t71 57q58 0 58 -61q0 -33 -52 -92q-84 -94 -166 -95q-55 0 -156.5 80t-121.5 80q-27 0 -73 -56t-72 -56q-55 0 -56 59z" />
<glyph unicode="&#x2000;" horiz-adv-x="896" />
<glyph unicode="&#x2001;" horiz-adv-x="1792" />
<glyph unicode="&#x2002;" horiz-adv-x="896" />
<glyph unicode="&#x2003;" horiz-adv-x="1792" />
<glyph unicode="&#x2004;" horiz-adv-x="597" />
<glyph unicode="&#x2005;" horiz-adv-x="448" />
<glyph unicode="&#x2006;" horiz-adv-x="298" />
<glyph unicode="&#x2007;" horiz-adv-x="298" />
<glyph unicode="&#x2008;" horiz-adv-x="224" />
<glyph unicode="&#x2009;" horiz-adv-x="358" />
<glyph unicode="&#x200a;" horiz-adv-x="99" />
<glyph unicode="&#x2010;" d="M150 526q0 106 147 107q31 0 96 -2h99h305q25 0 70.5 2t68.5 2q143 0 143 -92q0 -104 -116 -103q-2 -2 -17 -2q-18 0 -59 2t-62 2q-31 -2 -250 -2h-143q-96 -2 -143 -2q-139 0 -139 88z" />
<glyph unicode="&#x2011;" d="M150 526q0 106 147 107q31 0 96 -2h99h305q25 0 70.5 2t68.5 2q143 0 143 -92q0 -104 -116 -103q-2 -2 -17 -2q-18 0 -59 2t-62 2q-31 -2 -250 -2h-143q-96 -2 -143 -2q-139 0 -139 88z" />
<glyph unicode="&#x2012;" d="M150 526q0 106 147 107q31 0 96 -2h99h305q25 0 70.5 2t68.5 2q143 0 143 -92q0 -104 -116 -103q-2 -2 -17 -2q-18 0 -59 2t-62 2q-31 -2 -250 -2h-143q-96 -2 -143 -2q-139 0 -139 88z" />
<glyph unicode="&#x2013;" d="M135 537q0 70 55 86q20 6 113 6q152 2 170 2h76h-12h12q29 2 82 0q57 -2 82 -2h198q8 0 23.5 2t23.5 2q10 0 15 -2h6q115 2 115 -90q0 -102 -138 -103q-37 0 -110 2h-109h-41q-25 -2 -39 -2h-106q-287 0 -322 6q-94 10 -94 93zM635 629h16h13h-29z" />
<glyph unicode="&#x2014;" d="M-57 537q0 70 53 86q20 6 113 6l135 2h147q109 -2 150 -2q33 0 102 2h99.5h91.5q57 -2 88 -2h184q8 0 23.5 2t23.5 2q10 0 14 -2h9q112 2 112 -90q0 -80 -74 -97q-12 -2 -137 -4h-71h-71.5h-45.5q-29 -2 -43 -2h-469q-49 0 -150 2h-149q-135 0 -135 97z" />
<glyph unicode="&#x2018;" d="M508 1225q0 4 29.5 10t85.5 20q37 10 145 13l16 -43q0 -10 29 -125q14 -68 51 -203q2 -4 13 -29q10 -16 10 -28q0 -27 -23.5 -46.5t-52.5 -19.5q-31 0 -57 41q-12 12 -129 208t-117 202z" />
<glyph unicode="&#x2019;" d="M340 823q0 10 11 30.5t14 29.5q35 125 34 178q0 6 17.5 55t21.5 55q14 31 43 91q2 2 4 6q125 0 156 -19q2 0 64 -8l16 -4q0 -12 -81 -149.5t-105 -167.5q-35 -49 -76 -105q-35 -41 -66 -41q-53 0 -53 49z" />
<glyph unicode="&#x201a;" d="M340 -250q0 8 11 29.5t14 30.5q35 143 34 208q0 6 17.5 62.5t21.5 62.5q12 33 37 93q8 18 10 22q12 0 215 -27q21 -2 21 -4q0 -12 -82 -171.5t-104 -190.5q-29 -51 -76 -123q-27 -41 -66 -41q-53 0 -53 49z" />
<glyph unicode="&#x201c;" d="M231 1286q0 4 30 10.5t85 20.5q37 10 146 12l16 -43q0 -10 29 -125q14 -68 51 -203l14 -28q8 -17 8 -29q0 -27 -23.5 -46t-51.5 -19q-31 0 -58 41q-12 12 -129 207.5t-117 201.5zM616 1286q0 4 30 10.5t85 20.5q39 10 146 12l16 -43q0 -10 29 -125q16 -68 53 -203 q0 -4 12 -28q8 -17 8 -29q0 -27 -23.5 -46t-51.5 -19q-29 0 -58 41q-12 12 -129 207.5t-117 201.5z" />
<glyph unicode="&#x201d;" d="M213 823q0 10 11.5 30.5t13.5 29.5q35 125 34 178q0 6 17.5 55t21.5 55q14 31 43 91q2 2 4 6q125 0 156 -19q2 0 64 -8l16 -4q0 -12 -82 -149.5t-104 -167.5q-35 -49 -78 -105q-33 -41 -64 -41q-53 0 -53 49zM598 823q0 10 11.5 30.5t13.5 29.5q35 125 34 178 q0 6 17.5 55t21.5 55q14 31 43 91q2 2 4 6q12 0 215 -27q21 -2 21 -4q0 -6 -69.5 -129t-78.5 -131q-51 -78 -114 -162q-35 -41 -66 -41q-53 0 -53 49z" />
<glyph unicode="&#x201e;" d="M213 -186q0 10 11.5 30.5t13.5 28.5q35 125 34 178q0 6 17.5 55.5t21.5 55.5q14 31 43 90q2 2 4 6q125 0 156 -18q2 0 64 -9l16 -4q0 -12 -82 -149t-104 -168q-35 -51 -78 -105q-33 -41 -64 -41q-53 0 -53 50zM598 -186q0 10 11.5 30.5t13.5 28.5q35 125 34 178 q0 6 17.5 55.5t21.5 55.5q14 31 43 88l4 8q12 0 215 -27q21 -2 21 -4q0 -6 -69.5 -129t-78.5 -131q-51 -78 -114 -162q-35 -41 -66 -41q-53 0 -53 50z" />
<glyph unicode="&#x2022;" d="M307 623q0 127 90 216t217 89t216.5 -89t89.5 -216t-89.5 -217.5t-216.5 -90.5t-217 90.5t-90 217.5z" />
<glyph unicode="&#x2026;" d="M72 104q0 51 35.5 90t87.5 35h6q66 0 111.5 -33t45.5 -96q0 -74 -61 -108q-35 -20 -59 -21h-11q-27 -4 -43 11q-113 23 -112 122zM471 104q0 51 36 90t87 35h6q66 0 112 -33t46 -96q0 -74 -62 -108q-35 -20 -59 -21h-10q-27 -4 -43 11q-113 23 -113 122zM870 104 q0 51 36 90t87 35h6q66 0 112 -33t46 -96q0 -74 -61 -108q-35 -20 -60 -21h-10q-27 -4 -43 11q-113 23 -113 122z" />
<glyph unicode="&#x202f;" horiz-adv-x="358" />
<glyph unicode="&#x2039;" d="M145 309q0 31 21.5 54.5t54.5 23.5q4 0 148 -39q121 -33 219 -33q197 0 268 117q8 14 21 41q-2 2 -43 8q-80 12 -515 41q-66 4 -149 10q-10 4 -10 60q0 12 2 16q-16 170 135 281q135 98 313 98q186 0 323.5 -129t137.5 -315q0 -188 -134 -307t-323 -119q-115 0 -237 30 q-150 39 -207 105q-25 31 -25 57zM369 674q16 -6 211 -21q184 -14 239 -14q-6 0 55 2q-14 84 -98 133q-76 43 -166 43q-154 0 -219 -98q-18 -29 -22 -45z" />
<glyph unicode="&#x203a;" d="M145 506q8 186 152.5 308t333.5 112q162 -8 289 -101q141 -104 141 -256q0 -23 -4 -45q2 -4 2 -16q-2 -57 -15 -59q-61 0 -149 -3l-371 -6q-59 0 -145 -8q-20 -2 -43 -8q4 -12 18 -39q66 -121 262 -131q98 -6 220 20q147 31 151 31q31 -2 52.5 -25.5t19.5 -56.5 q-2 -27 -29 -55q-59 -63 -213 -94q-123 -25 -237 -19q-188 10 -314 133q-131 129 -121 318z" />
<glyph unicode="&#x205f;" horiz-adv-x="448" />
<glyph unicode="&#x2122;" d="M-68 944v250h594v-264q0 -80 -75 -80q-76 0 -76 94v100h-72v-444q70 0 92 -6q49 -14 49 -68q0 -76 -96 -75h-242q-94 0 -94 75q0 53 49 68q23 6 93 6v444h-72v-100q0 -94 -76 -94q-74 0 -74 94zM545 526q0 68 73 74v447q-63 10 -63 73q0 74 80 74h164l108 -264l107 264 h151q94 0 95 -74q0 -63 -64 -73v-447q74 -6 74 -74q0 -76 -94 -75h-129q-96 0 -97 75q0 74 97 74v279l-115 -258h-39l-125 262v-283q96 0 96 -74q0 -76 -96 -75h-129q-94 0 -94 75z" />
<glyph unicode="&#x25fc;" horiz-adv-x="931" d="M0 0v932h932v-932h-932z" />
</font>
</defs>
</svg>
